<svg width="1013" height="1012" viewBox="0 0 1013 1012" fill="none" xmlns="http://www.w3.org/2000/svg">
<g filter="url(#filter0_d_89_56)">
<mask id="path-1-outside-1_89_56" maskUnits="userSpaceOnUse" x="4" y="0" width="1005" height="1004" fill="black">
<rect fill="white" x="4" width="1005" height="1004"/>
<path fill-rule="evenodd" clip-rule="evenodd" d="M832.816 10.9044C817.765 13.8065 805.226 26.346 780.147 51.4249L505.175 326.397L232.202 51.9714C207.189 26.8261 194.683 14.2534 179.644 11.3141C173.394 10.0927 166.969 10.077 160.714 11.268C145.66 14.1341 133.093 26.6457 107.958 51.669C102.931 56.6736 100.418 59.1759 99.8302 62.1852C99.5861 63.4357 99.5829 64.7213 99.821 65.9729C100.394 68.985 102.895 71.4995 107.898 76.5285L107.898 76.5286L413.366 383.622C438.704 363.762 470.6 351.874 505.288 351.751C540.051 351.628 572.094 363.34 597.6 383.097L904.418 76.2791C909.434 71.2634 911.942 68.7555 912.522 65.7454C912.764 64.4947 912.764 63.2094 912.522 61.9586C911.942 58.9486 909.434 56.4407 904.418 51.4249C879.339 26.346 866.8 13.8065 851.75 10.9044C845.496 9.69852 839.069 9.69852 832.816 10.9044ZM624.414 409.893C643.994 435.135 655.697 466.802 655.819 501.218C655.944 536.574 643.827 569.116 623.455 594.829L929.222 902.222C934.224 907.251 936.725 909.766 939.733 910.354C940.983 910.598 942.268 910.601 943.519 910.363C946.53 909.79 949.043 907.287 954.07 902.283C979.205 877.259 991.772 864.748 994.71 849.702C995.931 843.449 995.947 837.021 994.756 830.763C991.891 815.703 979.385 803.13 954.373 777.985L680.59 502.745L956.601 228.195C981.746 203.183 994.319 190.677 997.258 175.637C998.48 169.388 998.495 162.963 997.304 156.707C994.438 141.653 981.927 129.086 956.903 103.952C951.899 98.9248 949.396 96.4114 946.387 95.8238C945.137 95.5796 943.851 95.5765 942.599 95.8145C939.587 96.3875 937.073 98.8887 932.044 103.891L624.414 409.893ZM596.999 620.867C571.869 640.132 540.46 651.628 506.352 651.749C471.268 651.873 438.955 639.943 413.336 619.854L106.35 925.215C101.321 930.218 98.8064 932.719 98.2186 935.727C97.9743 936.977 97.9712 938.262 98.2094 939.513C98.7826 942.524 101.285 945.037 106.29 950.064C131.313 975.198 143.824 987.765 158.871 990.704C165.123 991.924 171.551 991.94 177.809 990.75C192.869 987.885 205.442 975.379 230.588 950.366L504.706 677.699L779.519 952.513L779.52 952.513C804.598 977.592 817.138 990.131 832.188 993.033C838.441 994.239 844.868 994.239 851.122 993.033C866.172 990.131 878.711 977.591 903.79 952.513C908.806 947.497 911.314 944.989 911.894 941.979C912.136 940.728 912.136 939.443 911.894 938.192C911.314 935.182 908.806 932.674 903.79 927.658L596.999 620.867ZM387.167 593.531C367.622 568.301 355.943 536.663 355.821 502.282C355.699 467.792 367.227 435.979 386.704 410.572L80.2791 104.147C75.2634 99.1313 72.7555 96.6234 69.7454 96.043C68.4947 95.8018 67.2094 95.8018 65.9586 96.043C62.9486 96.6234 60.4407 99.1313 55.4251 104.147L55.425 104.147L55.4249 104.147C30.346 129.226 17.8065 141.765 14.9044 156.816C13.6985 163.069 13.6985 169.496 14.9044 175.75C17.8065 190.8 30.346 203.339 55.4249 228.418L329.289 502.283L56.0528 775.519C30.9739 800.598 18.4344 813.138 15.5323 828.188C14.3264 834.441 14.3264 840.868 15.5323 847.122C18.4344 862.172 30.9739 874.711 56.0528 899.79C61.0686 904.806 63.5765 907.314 66.5865 907.894C67.8373 908.136 69.1226 908.136 70.3733 907.894C73.3834 907.314 75.8913 904.806 80.9071 899.79L387.167 593.531Z"/>
</mask>
<path fill-rule="evenodd" clip-rule="evenodd" d="M832.816 10.9044C817.765 13.8065 805.226 26.346 780.147 51.4249L505.175 326.397L232.202 51.9714C207.189 26.8261 194.683 14.2534 179.644 11.3141C173.394 10.0927 166.969 10.077 160.714 11.268C145.66 14.1341 133.093 26.6457 107.958 51.669C102.931 56.6736 100.418 59.1759 99.8302 62.1852C99.5861 63.4357 99.5829 64.7213 99.821 65.9729C100.394 68.985 102.895 71.4995 107.898 76.5285L107.898 76.5286L413.366 383.622C438.704 363.762 470.6 351.874 505.288 351.751C540.051 351.628 572.094 363.34 597.6 383.097L904.418 76.2791C909.434 71.2634 911.942 68.7555 912.522 65.7454C912.764 64.4947 912.764 63.2094 912.522 61.9586C911.942 58.9486 909.434 56.4407 904.418 51.4249C879.339 26.346 866.8 13.8065 851.75 10.9044C845.496 9.69852 839.069 9.69852 832.816 10.9044ZM624.414 409.893C643.994 435.135 655.697 466.802 655.819 501.218C655.944 536.574 643.827 569.116 623.455 594.829L929.222 902.222C934.224 907.251 936.725 909.766 939.733 910.354C940.983 910.598 942.268 910.601 943.519 910.363C946.53 909.79 949.043 907.287 954.07 902.283C979.205 877.259 991.772 864.748 994.71 849.702C995.931 843.449 995.947 837.021 994.756 830.763C991.891 815.703 979.385 803.13 954.373 777.985L680.59 502.745L956.601 228.195C981.746 203.183 994.319 190.677 997.258 175.637C998.48 169.388 998.495 162.963 997.304 156.707C994.438 141.653 981.927 129.086 956.903 103.952C951.899 98.9248 949.396 96.4114 946.387 95.8238C945.137 95.5796 943.851 95.5765 942.599 95.8145C939.587 96.3875 937.073 98.8887 932.044 103.891L624.414 409.893ZM596.999 620.867C571.869 640.132 540.46 651.628 506.352 651.749C471.268 651.873 438.955 639.943 413.336 619.854L106.35 925.215C101.321 930.218 98.8064 932.719 98.2186 935.727C97.9743 936.977 97.9712 938.262 98.2094 939.513C98.7826 942.524 101.285 945.037 106.29 950.064C131.313 975.198 143.824 987.765 158.871 990.704C165.123 991.924 171.551 991.94 177.809 990.75C192.869 987.885 205.442 975.379 230.588 950.366L504.706 677.699L779.519 952.513L779.52 952.513C804.598 977.592 817.138 990.131 832.188 993.033C838.441 994.239 844.868 994.239 851.122 993.033C866.172 990.131 878.711 977.591 903.79 952.513C908.806 947.497 911.314 944.989 911.894 941.979C912.136 940.728 912.136 939.443 911.894 938.192C911.314 935.182 908.806 932.674 903.79 927.658L596.999 620.867ZM387.167 593.531C367.622 568.301 355.943 536.663 355.821 502.282C355.699 467.792 367.227 435.979 386.704 410.572L80.2791 104.147C75.2634 99.1313 72.7555 96.6234 69.7454 96.043C68.4947 95.8018 67.2094 95.8018 65.9586 96.043C62.9486 96.6234 60.4407 99.1313 55.4251 104.147L55.425 104.147L55.4249 104.147C30.346 129.226 17.8065 141.765 14.9044 156.816C13.6985 163.069 13.6985 169.496 14.9044 175.75C17.8065 190.8 30.346 203.339 55.4249 228.418L329.289 502.283L56.0528 775.519C30.9739 800.598 18.4344 813.138 15.5323 828.188C14.3264 834.441 14.3264 840.868 15.5323 847.122C18.4344 862.172 30.9739 874.711 56.0528 899.79C61.0686 904.806 63.5765 907.314 66.5865 907.894C67.8373 908.136 69.1226 908.136 70.3733 907.894C73.3834 907.314 75.8913 904.806 80.9071 899.79L387.167 593.531Z" fill="#102731"/>
<path d="M780.147 51.4249L773.076 44.3538L773.076 44.3538L780.147 51.4249ZM832.816 10.9044L830.922 1.08531L830.922 1.08531L832.816 10.9044ZM505.175 326.397L498.085 333.449L505.156 340.558L512.246 333.468L505.175 326.397ZM232.202 51.9714L239.292 44.9191L239.292 44.9191L232.202 51.9714ZM179.644 11.3141L181.562 1.49974L181.562 1.49974L179.644 11.3141ZM160.714 11.268L158.843 1.44443L158.843 1.44443L160.714 11.268ZM107.958 51.669L115.014 58.7557L115.014 58.7557L107.958 51.669ZM99.8302 62.1852L109.645 64.1018L109.645 64.1017L99.8302 62.1852ZM99.821 65.9729L89.9972 67.8416L89.9972 67.8416L99.821 65.9729ZM107.898 76.5285L100.808 83.5808L100.817 83.5902L100.827 83.5996L107.898 76.5285ZM107.898 76.5286L114.987 69.4763L114.978 69.4669L114.969 69.4575L107.898 76.5286ZM413.366 383.622L406.276 390.674L412.542 396.973L419.534 391.492L413.366 383.622ZM505.288 351.751L505.324 361.751L505.324 361.751L505.288 351.751ZM597.6 383.097L591.476 391.003L598.441 396.398L604.671 390.168L597.6 383.097ZM904.418 76.2791L897.347 69.2081L897.347 69.2081L904.418 76.2791ZM912.522 65.7454L902.703 63.8518L902.703 63.852L912.522 65.7454ZM912.522 61.9586L902.703 63.8521L902.703 63.8522L912.522 61.9586ZM904.418 51.4249L897.347 58.496L897.347 58.496L904.418 51.4249ZM851.75 10.9044L853.643 1.08531L853.643 1.08531L851.75 10.9044ZM624.414 409.893L617.362 402.803L611.094 409.037L616.512 416.022L624.414 409.893ZM655.819 501.218L645.819 501.253L645.819 501.254L655.819 501.218ZM623.455 594.829L615.617 588.619L610.1 595.582L616.365 601.881L623.455 594.829ZM929.222 902.222L922.132 909.275L922.132 909.275L929.222 902.222ZM939.733 910.354L937.815 920.168L937.815 920.168L939.733 910.354ZM943.519 910.363L941.649 900.539L941.649 900.539L943.519 910.363ZM954.07 902.283L947.015 895.196L947.015 895.196L954.07 902.283ZM994.71 849.702L984.895 847.785L984.895 847.785L994.71 849.702ZM994.756 830.763L984.932 832.632L984.932 832.632L994.756 830.763ZM954.373 777.985L947.283 785.037L947.283 785.037L954.373 777.985ZM680.59 502.745L673.538 495.656L666.448 502.708L673.5 509.798L680.59 502.745ZM956.601 228.195L963.653 235.285L963.653 235.285L956.601 228.195ZM997.258 175.637L1007.07 177.555L1007.07 177.555L997.258 175.637ZM997.304 156.707L987.481 158.577L987.481 158.578L997.304 156.707ZM956.903 103.952L949.817 111.007L949.817 111.007L956.903 103.952ZM946.387 95.8238L944.471 105.638L944.471 105.638L946.387 95.8238ZM942.599 95.8145L944.468 105.638L944.468 105.638L942.599 95.8145ZM932.044 103.891L939.096 110.981L939.096 110.981L932.044 103.891ZM596.999 620.867L604.07 613.796L597.871 607.597L590.915 612.931L596.999 620.867ZM506.352 651.749L506.387 661.749L506.387 661.749L506.352 651.749ZM413.336 619.854L419.507 611.985L412.551 606.53L406.284 612.764L413.336 619.854ZM106.35 925.215L113.402 932.305L113.402 932.305L106.35 925.215ZM98.2186 935.727L88.4043 933.809L88.4043 933.809L98.2186 935.727ZM98.2094 939.513L108.033 937.642L108.033 937.642L98.2094 939.513ZM106.29 950.064L113.376 943.008L113.376 943.008L106.29 950.064ZM158.871 990.704L160.787 980.889L160.787 980.889L158.871 990.704ZM177.809 990.75L175.94 980.926L175.94 980.926L177.809 990.75ZM230.588 950.366L223.535 943.277L223.535 943.277L230.588 950.366ZM504.706 677.699L511.777 670.628L504.724 663.576L497.653 670.609L504.706 677.699ZM832.188 993.033L834.081 983.214L834.081 983.214L832.188 993.033ZM851.122 993.033L849.228 983.214L849.228 983.214L851.122 993.033ZM911.894 941.979L902.075 940.085L902.075 940.085L911.894 941.979ZM911.894 938.192L902.075 940.086L902.075 940.086L911.894 938.192ZM387.167 593.531L394.238 600.602L400.468 594.372L395.072 587.406L387.167 593.531ZM355.821 502.282L345.821 502.317L345.821 502.317L355.821 502.282ZM386.704 410.572L394.64 416.656L399.973 409.699L393.775 403.501L386.704 410.572ZM80.2791 104.147L73.2081 111.218L73.2081 111.218L80.2791 104.147ZM69.7454 96.043L71.6388 86.2239L71.6388 86.2239L69.7454 96.043ZM65.9586 96.043L64.0652 86.2239L64.0652 86.2239L65.9586 96.043ZM55.4251 104.147L48.354 97.0759L48.354 97.0759L55.4251 104.147ZM55.425 104.147L48.3539 97.076L48.0332 97.3967L47.7428 97.7452L55.425 104.147ZM55.4249 104.147L62.496 111.218L62.8167 110.897L63.1071 110.549L55.4249 104.147ZM14.9044 156.816L24.7235 158.709L24.7235 158.709L14.9044 156.816ZM14.9044 175.75L24.7235 173.856L24.7235 173.856L14.9044 175.75ZM55.4249 228.418L48.3538 235.489L48.3538 235.489L55.4249 228.418ZM329.289 502.283L336.36 509.354L343.431 502.283L336.36 495.212L329.289 502.283ZM56.0528 775.519L48.9817 768.448L48.9817 768.448L56.0528 775.519ZM15.5323 828.188L5.71322 826.294L5.71322 826.294L15.5323 828.188ZM15.5323 847.122L5.71322 849.015L5.71322 849.015L15.5323 847.122ZM56.0528 899.79L63.1239 892.719L63.1239 892.719L56.0528 899.79ZM66.5865 907.894L68.4802 898.075L68.48 898.075L66.5865 907.894ZM70.3733 907.894L68.4799 898.075L68.4797 898.075L70.3733 907.894ZM80.9071 899.79L73.836 892.719L73.836 892.719L80.9071 899.79ZM787.218 58.496C799.906 45.8078 808.894 36.838 816.554 30.6049C824.081 24.4797 829.47 21.7337 834.709 20.7235L830.922 1.08531C821.111 2.97722 812.705 7.952 803.931 15.0918C795.289 22.1237 785.467 31.9631 773.076 44.3538L787.218 58.496ZM512.246 333.468L787.218 58.496L773.076 44.3538L498.104 319.326L512.246 333.468ZM225.112 59.0237L498.085 333.449L512.265 319.345L239.292 44.9191L225.112 59.0237ZM177.725 21.1284C182.959 22.1513 188.34 24.9105 195.851 31.0553C203.494 37.3083 212.457 46.3019 225.112 59.0237L239.292 44.9191C226.934 32.4956 217.138 22.6302 208.515 15.5757C199.76 8.41304 191.368 3.41618 181.562 1.49974L177.725 21.1284ZM162.584 21.0915C167.587 20.1389 172.727 20.1514 177.725 21.1284L181.562 1.49974C174.062 0.0339066 166.351 0.015135 158.843 1.44443L162.584 21.0915ZM115.014 58.7557C127.73 46.0957 136.737 37.1458 144.41 30.9301C151.951 24.8219 157.345 22.0889 162.584 21.0915L158.843 1.44443C149.028 3.31311 140.612 8.26905 131.822 15.389C123.165 22.4014 113.321 32.219 100.903 44.5823L115.014 58.7557ZM109.645 64.1017C109.493 64.8814 109.151 65.009 109.972 64.0041C110.902 62.8668 112.351 61.4064 115.014 58.7557L100.903 44.5823C98.5384 46.9362 96.2176 49.2293 94.4869 51.3466C92.648 53.5964 90.7555 56.4797 90.0156 60.2687L109.645 64.1017ZM109.645 64.1042C109.645 64.1034 109.645 64.1025 109.645 64.1018L90.0156 60.2687C89.5274 62.7688 89.5211 65.3391 89.9972 67.8416L109.645 64.1042ZM114.987 69.4763C112.338 66.8126 110.896 65.3452 109.972 64.2034C109.155 63.1945 109.496 63.3237 109.645 64.1041L89.9972 67.8416C90.7186 71.6341 92.5971 74.5267 94.425 76.7853C96.1454 78.911 98.4549 81.2154 100.808 83.5808L114.987 69.4763ZM114.969 69.4575L114.969 69.4575L100.827 83.5996L100.827 83.5996L114.969 69.4575ZM420.455 376.569L114.987 69.4763L100.808 83.5809L406.276 390.674L420.455 376.569ZM419.534 391.492C443.185 372.956 472.938 361.866 505.324 361.751L505.253 341.751C468.263 341.882 434.224 354.567 407.197 375.751L419.534 391.492ZM505.324 361.751C537.78 361.636 567.67 372.562 591.476 391.003L603.724 375.192C576.518 354.117 542.323 341.619 505.253 341.751L505.324 361.751ZM897.347 69.2081L590.529 376.026L604.671 390.168L911.489 83.3502L897.347 69.2081ZM902.703 63.852C902.854 63.0708 903.196 62.9418 902.377 63.9486C901.45 65.0879 900.004 66.5515 897.347 69.2081L911.489 83.3502C913.848 80.991 916.164 78.6928 917.89 76.5717C919.724 74.318 921.61 71.4301 922.341 67.6389L902.703 63.852ZM902.703 63.8522V63.8518L922.341 67.6391C922.824 65.1374 922.824 62.5666 922.341 60.065L902.703 63.8522ZM897.347 58.496C900.004 61.1526 901.45 62.6162 902.377 63.7555C903.196 64.7622 902.854 64.6332 902.703 63.8521L922.341 60.0651C921.61 56.274 919.724 53.386 917.89 51.1324C916.164 49.0113 913.848 46.713 911.489 44.3538L897.347 58.496ZM849.856 20.7235C855.095 21.7337 860.484 24.4797 868.012 30.6049C875.672 36.838 884.659 45.8078 897.347 58.496L911.489 44.3538C899.099 31.9631 889.277 22.1237 880.635 15.0918C871.86 7.952 863.454 2.97722 853.643 1.08531L849.856 20.7235ZM834.709 20.7235C839.712 19.7588 844.853 19.7588 849.856 20.7235L853.643 1.08531C846.139 -0.361771 838.427 -0.361771 830.922 1.08531L834.709 20.7235ZM616.512 416.022C634.787 439.581 645.705 469.121 645.819 501.253L665.819 501.183C665.689 464.483 653.201 430.688 632.315 403.764L616.512 416.022ZM645.819 501.254C645.936 534.262 634.633 564.618 615.617 588.619L631.293 601.039C653.022 573.613 665.953 538.885 665.819 501.183L645.819 501.254ZM936.311 895.17L630.545 587.777L616.365 601.881L922.132 909.275L936.311 895.17ZM941.651 900.539C942.433 900.692 942.562 901.035 941.557 900.214C940.421 899.284 938.961 897.834 936.311 895.17L922.132 909.275C924.485 911.64 926.777 913.962 928.893 915.693C931.142 917.533 934.025 919.427 937.815 920.168L941.651 900.539ZM941.649 900.539C941.65 900.539 941.651 900.539 941.651 900.539L937.815 920.168C940.315 920.657 942.886 920.663 945.39 920.186L941.649 900.539ZM947.015 895.196C944.352 897.847 942.886 899.29 941.744 900.214C940.736 901.031 940.866 900.688 941.649 900.539L945.39 920.186C949.183 919.464 952.076 917.584 954.333 915.755C956.458 914.034 958.761 911.723 961.126 909.369L947.015 895.196ZM984.895 847.785C983.872 853.024 981.113 858.408 974.971 865.922C968.721 873.569 959.731 882.536 947.015 895.196L961.126 909.369C973.544 897.006 983.405 887.206 990.456 878.58C997.616 869.821 1002.61 861.426 1004.52 851.618L984.895 847.785ZM984.932 832.632C985.885 837.639 985.872 842.782 984.895 847.785L1004.52 851.618C1005.99 844.116 1006.01 836.403 1004.58 828.895L984.932 832.632ZM947.283 785.037C959.938 797.759 968.883 806.77 975.097 814.447C981.202 821.991 983.935 827.388 984.932 832.632L1004.58 828.895C1002.71 819.078 997.76 810.659 990.643 801.865C983.634 793.204 973.821 783.356 961.463 770.932L947.283 785.037ZM673.5 509.798L947.283 785.037L961.463 770.932L687.68 495.693L673.5 509.798ZM949.549 221.105L673.538 495.656L687.642 509.835L963.653 235.285L949.549 221.105ZM987.444 173.719C986.421 178.953 983.662 184.333 977.517 191.844C971.264 199.488 962.27 208.451 949.549 221.105L963.653 235.285C976.077 222.927 985.942 213.131 992.997 204.509C1000.16 195.754 1005.16 187.361 1007.07 177.555L987.444 173.719ZM987.481 158.578C988.433 163.581 988.421 168.72 987.444 173.719L1007.07 177.555C1008.54 170.055 1008.56 162.344 1007.13 154.837L987.481 158.578ZM949.817 111.007C962.477 123.723 971.426 132.73 977.642 140.404C983.75 147.945 986.483 153.339 987.481 158.577L1007.13 154.837C1005.26 145.022 1000.3 136.605 993.183 127.815C986.171 119.158 976.353 109.314 963.99 96.8963L949.817 111.007ZM944.471 105.638C943.691 105.486 943.563 105.144 944.568 105.966C945.706 106.895 947.166 108.345 949.817 111.007L963.99 96.8963C961.636 94.5319 959.343 92.2112 957.226 90.4805C954.976 88.6415 952.093 86.749 948.304 86.0091L944.471 105.638ZM944.468 105.638C944.469 105.638 944.47 105.638 944.471 105.638L948.304 86.0091C945.804 85.5209 943.233 85.5147 940.731 85.9907L944.468 105.638ZM939.096 110.981C941.76 108.331 943.227 106.889 944.369 105.965C945.378 105.149 945.249 105.49 944.468 105.638L940.731 85.9907C936.938 86.7121 934.046 88.5906 931.787 90.4185C929.661 92.1389 927.357 94.4485 924.991 96.8014L939.096 110.981ZM631.466 416.983L939.096 110.981L924.991 96.8014L617.362 402.803L631.466 416.983ZM590.915 612.931C567.461 630.911 538.162 641.636 506.316 641.749L506.387 661.749C542.758 661.62 576.277 649.353 603.083 628.803L590.915 612.931ZM506.316 641.749C473.562 641.865 443.419 630.736 419.507 611.985L407.165 627.723C434.491 649.151 468.975 661.882 506.387 661.749L506.316 641.749ZM113.402 932.305L420.388 626.944L406.284 612.764L99.2978 918.125L113.402 932.305ZM108.033 937.645C107.88 938.427 107.537 938.556 108.359 937.551C109.289 936.414 110.739 934.955 113.402 932.305L99.2978 918.125C96.9323 920.478 94.6105 922.77 92.879 924.887C91.0394 927.135 89.145 930.019 88.4043 933.809L108.033 937.645ZM108.033 937.642C108.033 937.643 108.033 937.644 108.033 937.645L88.4043 933.809C87.9155 936.309 87.9093 938.88 88.3858 941.383L108.033 937.642ZM113.376 943.008C110.726 940.346 109.283 938.879 108.358 937.738C107.541 936.729 107.884 936.86 108.033 937.642L88.3858 941.383C89.108 945.177 90.9884 948.069 92.8171 950.327C94.5383 952.451 96.8489 954.755 99.2029 957.119L113.376 943.008ZM160.787 980.889C155.548 979.866 150.164 977.107 142.65 970.965C135.004 964.714 126.036 955.725 113.376 943.008L99.2028 957.119C111.566 969.537 121.366 979.398 129.993 986.45C138.752 993.609 147.147 998.603 156.954 1000.52L160.787 980.889ZM175.94 980.926C170.933 981.878 165.79 981.866 160.787 980.889L156.954 1000.52C164.456 1001.98 172.169 1002 179.678 1000.57L175.94 980.926ZM223.535 943.277C210.813 955.931 201.802 964.877 194.125 971.09C186.581 977.196 181.184 979.928 175.94 980.926L179.678 1000.57C189.494 998.706 197.914 993.753 206.707 986.637C215.368 979.627 225.216 969.814 237.64 957.456L223.535 943.277ZM497.653 670.609L223.535 943.277L237.64 957.456L511.758 684.789L497.653 670.609ZM786.59 945.441L511.777 670.628L497.635 684.77L772.448 959.584L786.59 945.441ZM786.591 945.442L786.59 945.441L772.448 959.584L772.448 959.584L786.591 945.442ZM834.081 983.214C828.842 982.204 823.453 979.458 815.926 973.333C808.266 967.1 799.279 958.13 786.591 945.442L772.448 959.584C784.839 971.975 794.661 981.814 803.303 988.846C812.077 995.985 820.483 1000.96 830.294 1002.85L834.081 983.214ZM849.228 983.214C844.225 984.179 839.084 984.179 834.081 983.214L830.294 1002.85C837.799 1004.3 845.511 1004.3 853.015 1002.85L849.228 983.214ZM896.719 945.441C884.031 958.13 875.044 967.099 867.384 973.333C859.856 979.458 854.467 982.204 849.228 983.214L853.015 1002.85C862.826 1000.96 871.232 995.985 880.007 988.846C888.649 981.814 898.471 971.974 910.861 959.584L896.719 945.441ZM902.075 940.085C902.226 939.304 902.568 939.175 901.749 940.182C900.822 941.321 899.376 942.785 896.719 945.441L910.861 959.584C913.221 957.224 915.536 954.926 917.262 952.805C919.096 950.551 920.982 947.663 921.714 943.872L902.075 940.085ZM902.075 940.086V940.085L921.713 943.872C922.196 941.371 922.196 938.8 921.713 936.298L902.075 940.086ZM896.719 934.729C899.376 937.386 900.822 938.85 901.749 939.989C902.568 940.996 902.226 940.867 902.075 940.086L921.714 936.299C920.982 932.507 919.096 929.619 917.262 927.366C915.536 925.245 913.221 922.946 910.861 920.587L896.719 934.729ZM589.928 627.938L896.719 934.729L910.861 920.587L604.07 613.796L589.928 627.938ZM395.072 587.406C376.831 563.859 365.935 534.346 365.821 502.246L345.821 502.317C345.951 538.979 358.414 572.743 379.261 599.655L395.072 587.406ZM365.821 502.246C365.707 470.045 376.461 440.369 394.64 416.656L378.767 404.488C357.992 431.589 345.691 465.539 345.821 502.317L365.821 502.246ZM73.2081 111.218L379.633 417.643L393.775 403.501L87.3502 97.076L73.2081 111.218ZM67.852 105.862C67.0708 105.711 66.9418 105.369 67.9486 106.188C69.0879 107.115 70.5515 108.562 73.2081 111.218L87.3502 97.0761C84.991 94.7169 82.6928 92.4012 80.5717 90.6752C78.318 88.8414 75.4301 86.955 71.6388 86.2239L67.852 105.862ZM67.852 105.862H67.852L71.6388 86.2239C69.1373 85.7415 66.5667 85.7415 64.0652 86.2239L67.852 105.862ZM62.4961 111.218C65.1527 108.562 66.6162 107.115 67.7555 106.188C68.7622 105.369 68.6332 105.711 67.852 105.862L64.0652 86.2239C60.274 86.955 57.3861 88.8414 55.1324 90.6752C53.0114 92.4011 50.7132 94.7167 48.354 97.0759L62.4961 111.218ZM62.496 111.218L62.4961 111.218L48.354 97.0759L48.3539 97.076L62.496 111.218ZM63.1071 110.549L63.1072 110.549L47.7428 97.7452L47.7427 97.7453L63.1071 110.549ZM24.7235 158.709C25.7337 153.47 28.4798 148.081 34.6049 140.554C40.838 132.894 49.8078 123.906 62.496 111.218L48.3538 97.076C35.9631 109.467 26.1237 119.289 19.0918 127.931C11.952 136.705 6.97722 145.111 5.08531 154.922L24.7235 158.709ZM24.7235 173.856C23.7588 168.853 23.7588 163.712 24.7235 158.709L5.08532 154.922C3.63823 162.427 3.63823 170.139 5.08532 177.643L24.7235 173.856ZM62.496 221.347C49.8078 208.659 40.838 199.672 34.6049 192.012C28.4798 184.484 25.7337 179.095 24.7235 173.856L5.08531 177.643C6.97722 187.454 11.952 195.86 19.0918 204.635C26.1237 213.277 35.9631 223.099 48.3538 235.489L62.496 221.347ZM336.36 495.212L62.496 221.347L48.3538 235.489L322.218 509.354L336.36 495.212ZM63.1239 782.59L336.36 509.354L322.218 495.212L48.9817 768.448L63.1239 782.59ZM25.3515 830.081C26.3617 824.842 29.1077 819.453 35.2328 811.926C41.4659 804.266 50.4357 795.278 63.1239 782.59L48.9817 768.448C36.591 780.839 26.7516 790.661 19.7197 799.303C12.5799 808.077 7.60513 816.483 5.71322 826.294L25.3515 830.081ZM25.3515 845.228C24.3867 840.225 24.3867 835.084 25.3515 830.081L5.71322 826.294C4.26614 833.799 4.26614 841.511 5.71322 849.015L25.3515 845.228ZM63.1239 892.719C50.4357 880.031 41.4659 871.044 35.2329 863.384C29.1077 855.856 26.3617 850.467 25.3515 845.228L5.71322 849.015C7.60513 858.826 12.5799 867.232 19.7197 876.007C26.7516 884.649 36.591 894.471 48.9817 906.861L63.1239 892.719ZM68.48 898.075C69.2611 898.226 69.39 898.568 68.3833 897.749C67.2441 896.822 65.7805 895.376 63.1239 892.719L48.9817 906.861C51.341 909.221 53.6392 911.536 55.7603 913.262C58.014 915.096 60.9019 916.982 64.693 917.714L68.48 898.075ZM68.4797 898.075H68.4802L64.6929 917.713C67.1945 918.196 69.7653 918.196 72.267 917.713L68.4797 898.075ZM73.836 892.719C71.1794 895.376 69.7158 896.822 68.5765 897.749C67.5698 898.568 67.6987 898.226 68.4799 898.075L72.2668 917.714C76.058 916.982 78.9459 915.096 81.1996 913.262C83.3207 911.536 85.6189 909.221 87.9781 906.861L73.836 892.719ZM380.096 586.459L73.836 892.719L87.9781 906.861L394.238 600.602L380.096 586.459Z" fill="white" mask="url(#path-1-outside-1_89_56)"/>
<circle cx="506.696" cy="502.875" r="120" transform="rotate(-0.203159 506.696 502.875)" fill="#102731" stroke="white" stroke-width="10"/>
<path d="M558.217 487.036L489.491 451.051C479.374 445.753 467.284 453.254 467.537 464.671L469.255 542.23C469.512 553.838 482.293 560.765 492.159 554.644L559.167 513.071C569.033 506.95 568.503 492.422 558.217 487.036Z" fill="#2B84C7" stroke="white" stroke-width="10"/>
<path d="M827.289 404.283H817.289C803.482 404.283 792.289 415.476 792.289 429.283V574.283C792.289 588.09 803.482 599.283 817.289 599.283H827.289C835.573 599.283 842.289 592.567 842.289 584.283V419.283C842.289 410.999 835.573 404.283 827.289 404.283Z" fill="#102731" stroke="white" stroke-width="10"/>
<path d="M886.289 372.283H876.289C862.482 372.283 851.289 383.476 851.289 397.283V607.283C851.289 621.09 862.482 632.283 876.289 632.283H886.289C894.573 632.283 901.289 625.567 901.289 617.283V387.283C901.289 378.999 894.573 372.283 886.289 372.283Z" fill="#102731" stroke="white" stroke-width="10"/>
<path d="M947.289 322.283H937.289C923.482 322.283 912.289 333.476 912.289 347.283V657.283C912.289 671.09 923.482 682.283 937.289 682.283H947.289C955.573 682.283 962.289 675.567 962.289 667.283V337.283C962.289 328.999 955.573 322.283 947.289 322.283Z" fill="#102731" stroke="white" stroke-width="10"/>
<path d="M181.879 600.054L191.879 600.131C205.686 600.238 216.965 589.132 217.072 575.325L218.193 430.33C218.3 416.523 207.194 405.244 193.387 405.137L183.387 405.06C175.103 404.996 168.336 411.659 168.272 419.943L166.996 584.938C166.932 593.222 173.595 599.99 181.879 600.054Z" fill="#102731" stroke="white" stroke-width="10"/>
<path d="M122.634 631.597L132.634 631.674C146.441 631.781 157.72 620.675 157.826 606.868L159.45 396.875C159.557 383.068 148.451 371.789 134.644 371.682L124.645 371.605C116.361 371.541 109.593 378.204 109.529 386.488L107.751 616.481C107.686 624.765 114.35 631.533 122.634 631.597Z" fill="#102731" stroke="white" stroke-width="10"/>
<path d="M61.2493 681.124L71.249 681.202C85.0557 681.308 96.3348 670.202 96.4416 656.396L98.8389 346.405C98.9457 332.598 87.8397 321.319 74.033 321.212L64.0333 321.135C55.7492 321.071 48.9818 327.735 48.9177 336.019L46.3658 666.009C46.3017 674.293 52.9653 681.06 61.2493 681.124Z" fill="#102731" stroke="white" stroke-width="10"/>
</g>
<defs>
<filter id="filter0_d_89_56" x="0" y="0" width="1012.19" height="1011.94" filterUnits="userSpaceOnUse" color-interpolation-filters="sRGB">
<feFlood flood-opacity="0" result="BackgroundImageFix"/>
<feColorMatrix in="SourceAlpha" type="matrix" values="0 0 0 0 0 0 0 0 0 0 0 0 0 0 0 0 0 0 127 0" result="hardAlpha"/>
<feOffset dy="4"/>
<feGaussianBlur stdDeviation="2"/>
<feComposite in2="hardAlpha" operator="out"/>
<feColorMatrix type="matrix" values="0 0 0 0 0 0 0 0 0 0 0 0 0 0 0 0 0 0 0.25 0"/>
<feBlend mode="normal" in2="BackgroundImageFix" result="effect1_dropShadow_89_56"/>
<feBlend mode="normal" in="SourceGraphic" in2="effect1_dropShadow_89_56" result="shape"/>
</filter>
</defs>
</svg>
