<svg width="1119" height="873" viewBox="0 0 1119 873" fill="none" xmlns="http://www.w3.org/2000/svg">
<g clip-path="url(#clip0_73_21)">
<path fill-rule="evenodd" clip-rule="evenodd" d="M304.138 17.0465C293.965 18.3673 283.614 18.6267 273.083 17.8246C283.273 17.1451 293.624 16.8857 304.138 17.0465Z" fill="#102731"/>
<path fill-rule="evenodd" clip-rule="evenodd" d="M702.929 131.835C707.697 129.353 711.505 125.834 714.353 121.276C737.797 96.5601 762.089 72.6646 787.232 49.5896C789.257 49.0021 791.281 48.4148 793.306 47.8273C835.195 47.8525 876.75 51.4913 917.973 58.7435C919.638 59.9431 920.079 61.4617 919.295 63.299C889.508 93.238 859.156 122.733 828.241 151.783C825.151 153.996 822.381 156.556 819.932 159.462C802.63 175.292 785.807 191.643 769.462 208.513C750.454 224.475 732.438 241.446 715.416 259.425C698.459 273.169 682.853 288.234 668.6 304.617C664.172 310.133 658.565 312.747 651.779 312.461C624.904 293.564 594.975 282.711 561.991 279.901C540.326 277.222 519.225 279.393 498.685 286.414C493.922 288.235 489.494 290.562 485.4 293.397C484.797 292.147 483.657 291.434 481.982 291.26C480.809 291.381 479.637 291.501 478.465 291.622C474.361 296.947 469.312 298.082 463.319 295.029C410.379 234.62 355.814 175.926 299.624 118.948C275.069 90.2967 249.82 62.281 223.873 34.9007C220.331 29.5949 217.043 24.1279 214.011 18.4998C210.898 17.7092 207.927 16.925 205.097 16.147C227.751 17.1142 250.413 17.6735 273.084 17.8247C283.614 18.6268 293.966 18.3674 304.139 17.0466C312.445 15.1614 319.7 17.282 325.905 23.4084C393.661 94.633 461.569 166.029 529.631 237.594C538.563 247.954 547.496 258.314 556.428 268.673C558.068 269.406 559.733 269.471 561.425 268.87C567.539 262.899 573.291 256.621 578.679 250.035C604.644 226.039 630.609 202.042 656.574 178.046C671.382 161.93 686.833 146.526 702.929 131.835Z" fill="#102731"/>
<path fill-rule="evenodd" clip-rule="evenodd" d="M205.097 16.1467C207.926 16.9247 210.898 17.7089 214.011 18.4995C217.043 24.1276 220.33 29.5946 223.873 34.9004C249.819 62.2807 275.069 90.2964 299.623 118.948C355.814 175.926 410.378 234.619 463.318 295.028C469.312 298.082 474.36 296.946 478.464 291.622C479.637 291.501 480.809 291.381 481.981 291.26C483.657 291.434 484.796 292.146 485.4 293.396C479.634 297.152 474.455 301.618 469.86 306.795C467.57 307.424 465.225 307.665 462.826 307.519C395.627 240.192 330.484 170.573 267.397 98.6632C246.705 77.0608 226.214 55.2372 205.926 33.1926C202.839 28.1134 199.359 23.3061 195.486 18.7704C195.041 17.8041 194.914 16.7984 195.105 15.7531C198.435 15.8843 201.766 16.0155 205.097 16.1467Z" fill="#102731"/>
<path fill-rule="evenodd" clip-rule="evenodd" d="M436.705 335.512C435.561 341.227 434.006 346.837 432.039 352.341C425.49 372.422 423.011 393.007 424.602 414.096C424.242 421.792 425.285 429.172 427.733 436.237C427.188 438.727 427.775 440.752 429.495 442.311C430.316 444.502 430.89 446.859 431.218 449.384C430.45 453.479 431.831 456.536 435.36 458.554C434.312 460.293 434.579 461.971 436.162 463.59C437.736 465.987 439.309 468.384 440.883 470.781C441.696 469.714 442.528 469.747 443.381 470.88C446.472 474.447 449.325 478.229 451.941 482.225C452.432 484.496 453.698 486.213 455.741 487.379C459.633 490.2 461.32 493.937 460.804 498.587C455.201 504.243 449.802 510.035 444.607 515.963C442.875 517.856 441.131 519.789 439.375 521.761C436.051 523.226 433.294 525.452 431.105 528.441C413.397 546.893 394.536 564.164 374.522 580.254C369.61 585.27 364.903 590.422 360.403 595.71C353.159 601.762 346.234 608.162 339.631 614.907C330.979 621.939 323.003 629.631 315.704 637.983C308.806 643.716 302.228 649.795 295.971 656.22C278.418 671.32 261.609 687.338 245.54 704.272C216.549 731.705 187.616 759.088 158.739 786.419C140.495 802.743 123.362 801.568 107.338 782.893C92.659 762.723 87.5428 740.171 91.9891 715.236C93.2292 709.86 95.4245 704.942 98.575 700.484C119.722 681.1 140.674 661.576 161.429 641.913C182.624 623.127 203.403 603.763 223.765 583.822C230.025 578.355 236.564 573.274 243.38 568.582C250.89 560.841 258.526 553.302 266.288 545.966C270.31 543.857 273.758 540.991 276.634 537.367C310.959 503.555 345.158 469.542 379.231 435.327C381.358 432.88 383.294 430.287 385.042 427.549C386.473 423.553 386.464 419.549 385.014 415.539C360.523 387.648 334.714 361.112 307.588 335.929C286.164 313.094 265.06 289.911 244.277 266.383C218.003 239.692 192.048 212.649 166.41 185.255C135.198 155.656 105.231 124.618 76.5061 92.1435C69.7254 83.8372 67.7614 74.4193 70.6138 63.8896C72.9886 54.6241 76.9935 46.1085 82.6288 38.3428C94.0185 27.5042 107.176 19.516 122.103 14.3782C131.125 13.0567 139.041 15.37 145.848 21.3183C174.458 52.2749 203.094 83.2595 231.755 114.272C275.337 162.47 319.317 210.406 363.696 258.078C389.687 282.4 414.024 308.211 436.705 335.512Z" fill="#102731"/>
<path fill-rule="evenodd" clip-rule="evenodd" d="M560.521 63.1751C560.3 69.383 560.73 75.4046 561.811 81.2399C563.002 93.2065 564.195 105.263 565.39 117.409C564.974 120.724 565.522 123.748 567.034 126.481C566.995 127.48 566.955 128.479 566.916 129.478C566.431 133.122 566.965 136.479 568.521 139.549C569.021 146.563 569.412 153.584 569.693 160.612C569.469 169.186 570.14 177.552 571.706 185.71C572.653 190.902 572.609 196.238 571.576 201.718C569.994 207.508 566.239 209.696 560.309 208.279C557.95 208.182 555.799 207.764 553.853 207.024C551.753 204.855 549.127 203.751 545.977 203.711C540.798 200.592 537.306 196.117 535.498 190.289C535.378 187.715 534.803 185.356 533.775 183.215C533.632 178.158 533.163 173.135 532.367 168.148C532.181 163.954 531.672 159.93 530.841 156.079C529.753 145.048 528.854 134.004 528.143 122.947C528.335 117.399 527.878 112.044 526.774 106.88C527.036 101.656 526.567 96.6331 525.367 91.8134C523.304 80.2773 522.098 68.5541 521.748 56.6437C523.536 37.1736 533.425 31.7252 551.415 40.2989C558.335 46.3037 561.37 53.9291 560.521 63.1751Z" fill="#102731"/>
<path fill-rule="evenodd" clip-rule="evenodd" d="M919.273 264.634C895.884 238.895 874.252 211.853 854.374 183.507C853.648 184.236 852.77 184.538 851.739 184.411C875.524 160.042 900.522 136.852 926.734 114.839C938.569 101.332 952.026 89.6067 967.106 79.6629C970.139 78.315 973.266 78.1024 976.488 79.0252C982.905 82.1105 989.001 85.7084 994.776 89.8188C1018.12 111.327 1027.65 137.724 1023.36 169.012C1020.92 171.764 1018.72 174.699 1016.78 177.818C997.108 193.167 978.775 209.904 961.78 228.031C947.41 240.091 933.241 252.291 919.273 264.634Z" fill="#102731"/>
<path fill-rule="evenodd" clip-rule="evenodd" d="M560.521 63.1753C561.85 68.9935 562.281 75.0151 561.811 81.2401C560.73 75.4048 560.3 69.3832 560.521 63.1753Z" fill="#102731"/>
<path fill-rule="evenodd" clip-rule="evenodd" d="M525.366 91.8136C526.566 96.6334 527.036 101.656 526.774 106.881C525.223 102.099 524.755 97.0767 525.366 91.8136Z" fill="#102731"/>
<path fill-rule="evenodd" clip-rule="evenodd" d="M526.774 106.88C527.878 112.044 528.334 117.399 528.143 122.947C526.666 117.816 526.21 112.461 526.774 106.88Z" fill="#102731"/>
<path fill-rule="evenodd" clip-rule="evenodd" d="M565.39 117.409C567.051 120.099 567.599 123.123 567.034 126.481C565.523 123.748 564.974 120.724 565.39 117.409Z" fill="#102731"/>
<path fill-rule="evenodd" clip-rule="evenodd" d="M714.354 121.276C711.505 125.834 707.698 129.354 702.929 131.835C706.417 127.969 710.226 124.45 714.354 121.276Z" fill="#102731"/>
<path fill-rule="evenodd" clip-rule="evenodd" d="M566.917 129.479C568.472 132.549 569.006 135.906 568.521 139.549C566.966 136.479 566.432 133.122 566.917 129.479Z" fill="#102731"/>
<path fill-rule="evenodd" clip-rule="evenodd" d="M828.241 151.783C826.431 155.382 823.662 157.941 819.932 159.462C822.381 156.556 825.151 153.996 828.241 151.783Z" fill="#102731"/>
<path fill-rule="evenodd" clip-rule="evenodd" d="M530.841 156.079C531.672 159.931 532.181 163.954 532.367 168.148C530.584 164.546 530.076 160.523 530.841 156.079Z" fill="#102731"/>
<path fill-rule="evenodd" clip-rule="evenodd" d="M569.692 160.612C571.381 168.762 572.052 177.128 571.706 185.711C570.14 177.553 569.469 169.186 569.692 160.612Z" fill="#102731"/>
<path fill-rule="evenodd" clip-rule="evenodd" d="M922.071 259.56C921.546 260.514 921.007 261.493 920.454 262.499C911.036 271.365 901.522 279.997 891.912 288.396C888.239 290.182 885.137 292.729 882.604 296.035C852.141 324.992 821.803 354.155 791.59 383.52C787 388.236 782.639 393.068 778.509 398.016C775.357 399.963 772.921 402.536 771.2 405.735C765.018 411.384 759.273 417.495 753.964 424.07C753.052 427.171 753.266 430.182 754.609 433.103C788.967 467.951 823.108 503.155 857.031 538.717C900.225 585.453 943.418 632.19 986.612 678.926C1015.69 706.403 1042.9 735.664 1068.22 766.707C1076.59 786.229 1076.98 805.926 1069.39 825.799C1058.12 841.621 1042.61 850.016 1022.87 850.987C1013.41 838.145 1003.74 825.421 993.847 812.815C965.479 783.508 937.803 753.563 910.819 722.977C905.994 718.45 901.168 713.923 896.343 709.396C863.629 673.307 831.02 637.329 798.516 601.462C777.307 579.204 755.473 557.662 733.009 536.833C722.686 525.734 712.447 514.656 702.294 503.598C701.365 503.078 700.373 502.873 699.316 502.98C701.38 499.141 703.856 495.57 706.743 492.264C707.613 492.43 708.293 492.123 708.781 491.344C711.155 487.253 712.991 482.989 714.289 478.551C716.975 472.833 719.21 466.916 720.993 460.801C722.731 458.93 723.488 456.624 723.267 453.885C723.928 445.387 723.923 437.048 723.252 428.865C723.572 425.253 723.037 421.895 721.647 418.794C720.889 410.406 719.205 402.333 716.597 394.576C716.266 391.904 715.359 389.533 713.874 387.464C706.774 372.136 697.653 358.099 686.511 345.354C686.403 344.297 686.609 343.304 687.129 342.376C690.277 339.629 693.226 336.743 695.976 333.717C695.875 332.974 696.068 332.314 696.555 331.739C707.056 322.196 717.276 312.591 727.213 302.923C730.537 301.459 733.294 299.233 735.482 296.244C735.38 295.5 735.574 294.84 736.061 294.265C762.679 269.938 788.837 245.281 814.533 220.297C817.87 219.138 820.293 216.899 821.803 213.578C833.701 202.264 845.484 191.052 857.155 179.943C858.147 180.068 858.992 179.767 859.692 179.042C878.793 207.178 899.586 234.018 922.071 259.56Z" fill="#102731"/>
<path fill-rule="evenodd" clip-rule="evenodd" d="M533.775 183.215C534.803 185.356 535.378 187.715 535.498 190.288C533.912 188.286 533.339 185.928 533.775 183.215Z" fill="#102731"/>
<path fill-rule="evenodd" clip-rule="evenodd" d="M97.3255 186.036C92.6074 185.633 87.9313 185.783 83.297 186.484C83.4319 185.872 83.7846 185.385 84.3553 185.025C88.9042 184.389 93.2276 184.727 97.3255 186.036Z" fill="#102731"/>
<path fill-rule="evenodd" clip-rule="evenodd" d="M545.977 203.712C549.127 203.751 551.753 204.855 553.853 207.024C550.703 206.985 548.078 205.881 545.977 203.712Z" fill="#102731"/>
<path fill-rule="evenodd" clip-rule="evenodd" d="M97.3258 186.036C108.007 189.944 113.714 197.508 114.446 208.728C114.706 219.629 115.618 230.34 117.183 240.86C117.473 272.26 118.238 303.647 119.478 335.024C119.057 341.574 119.474 347.928 120.728 354.088C120.832 362.783 121.157 371.469 121.703 380.146C121.424 387.678 121.802 395.033 122.836 402.208C126.634 453.618 129.442 505.103 131.262 556.659C134.553 572.717 134.423 588.725 130.871 604.681C114.974 619.085 102.562 616.595 93.6364 597.21C93.4035 595.113 92.9826 593.095 92.3738 591.155C92.2524 586.294 91.7699 581.604 90.9265 577.087C91.4085 572.901 91.2328 568.891 90.3997 565.057C90.6496 558.188 90.2459 551.5 89.1885 544.994C89.2774 539.312 89.1674 533.636 88.8585 527.968C89.1406 522.085 88.6975 516.396 87.5293 510.902C87.6986 493.861 87.3686 476.834 86.5393 459.824C87.0161 452.941 86.6125 446.253 85.3282 439.76C85.6542 432.557 85.2635 425.536 84.1565 418.698C84.6528 414.182 84.4904 409.838 83.669 405.669C83.9189 398.799 83.5153 392.111 82.4579 385.605C82.5235 383.94 82.5891 382.275 82.6547 380.609C82.9978 375.05 82.5416 369.694 81.2861 364.543C81.4468 359.655 80.9644 354.966 79.8388 350.475C79.8935 345.925 79.398 341.569 78.3521 337.406C78.229 332.064 78.1059 326.721 77.9828 321.379C78.7097 311.183 78.4373 301.165 77.1653 291.324C77.6325 287.468 77.4437 283.791 76.5991 280.293C77.0188 277.422 76.7908 274.744 75.9148 272.26C76.3625 264.323 75.6651 256.624 73.8226 249.16C73.839 245.798 73.6372 242.454 73.217 239.128C73.2242 235.238 72.7024 231.548 71.6516 228.058C71.1097 225.079 70.8947 222.068 71.0067 219.025C71.6627 210.619 71.9908 202.292 71.9908 194.045C74.6363 189.751 78.4052 187.23 83.2972 186.484C87.9315 185.783 92.6077 185.633 97.3258 186.036Z" fill="#102731"/>
<path fill-rule="evenodd" clip-rule="evenodd" d="M821.803 213.577C820.293 216.898 817.87 219.138 814.533 220.296C816.636 217.71 819.06 215.471 821.803 213.577Z" fill="#102731"/>
<path fill-rule="evenodd" clip-rule="evenodd" d="M71.9904 194.045C71.9903 202.292 71.6623 210.619 71.0062 219.025C70.002 210.646 70.3301 202.319 71.9904 194.045Z" fill="#102731"/>
<path fill-rule="evenodd" clip-rule="evenodd" d="M114.445 208.728C116.17 219.234 117.083 229.945 117.182 240.86C115.618 230.34 114.705 219.629 114.445 208.728Z" fill="#102731"/>
<path fill-rule="evenodd" clip-rule="evenodd" d="M1037.97 315.166C1037.56 321.058 1038.01 326.747 1039.3 332.231C1040.02 341.729 1040.65 351.094 1041.2 360.328C1041.08 369.035 1041.41 377.722 1042.17 386.386C1041.81 394.318 1042.51 402.018 1044.26 409.487C1048.34 455.151 1051.88 500.992 1054.86 547.01C1054.81 556.625 1055.77 566.003 1057.75 575.146C1058.08 584.721 1059.04 594.1 1060.65 603.282C1061.62 616.699 1062.93 630.094 1064.57 643.467C1065.39 651.713 1064.41 659.681 1061.62 667.37C1051.52 676.748 1040.99 677.168 1030.05 668.628C1025.35 664.191 1022.06 658.89 1020.17 652.727C1019.46 620.228 1017.57 587.794 1014.49 555.428C1014.8 546.513 1014.14 537.813 1012.52 529.33C1013.13 523.419 1012.68 517.73 1011.19 512.264C1011.8 506.354 1011.35 500.665 1009.86 495.199C1009.68 484.138 1009.12 473.107 1008.16 462.106C1008.77 456.196 1008.33 450.507 1006.83 445.041C1004.94 412.41 1002.55 379.958 999.661 347.683C999.711 342.147 999.255 336.792 998.293 331.617C998.306 331.284 998.319 330.95 998.332 330.617C998.424 327.04 997.89 323.684 996.727 320.546C994.891 307.789 993.058 295.04 991.229 282.3C991.141 275.75 992.056 269.447 993.975 263.394C995.653 260.727 998.057 258.986 1001.19 258.174C1014.29 257.135 1024.95 261.725 1033.17 271.943C1037.15 286.035 1038.74 300.442 1037.97 315.166Z" fill="#102731"/>
<path fill-rule="evenodd" clip-rule="evenodd" d="M71.6511 228.058C72.702 231.548 73.2238 235.239 73.2166 239.128C72.512 238.682 72.0386 237.997 71.7965 237.071C71.4162 234.071 71.3679 231.067 71.6511 228.058Z" fill="#102731"/>
<path fill-rule="evenodd" clip-rule="evenodd" d="M993.976 263.394C992.057 269.447 991.141 275.75 991.229 282.3C990.27 277.443 990.301 272.44 991.32 267.292C991.989 265.751 992.875 264.451 993.976 263.394Z" fill="#102731"/>
<path fill-rule="evenodd" clip-rule="evenodd" d="M170.472 259.973C166.085 259.594 161.742 259.756 157.443 260.46C157.578 259.848 157.93 259.362 158.501 259.001C162.719 258.354 166.709 258.679 170.472 259.973Z" fill="#102731"/>
<path fill-rule="evenodd" clip-rule="evenodd" d="M73.8223 249.16C75.6648 256.624 76.3622 264.323 75.9145 272.26C74.3872 264.768 73.6897 257.069 73.8223 249.16Z" fill="#102731"/>
<path fill-rule="evenodd" clip-rule="evenodd" d="M170.472 259.973C175.673 260.812 180.258 262.995 184.225 266.52C184.716 268.79 185.982 270.507 188.025 271.673C189.728 272.9 190.662 274.605 190.826 276.787C190.884 280.147 191.765 283.184 193.469 285.898C193.791 300.756 193.867 315.77 193.696 330.942C193.353 336.502 193.81 341.857 195.065 347.009C195.039 347.675 195.012 348.341 194.986 349.007C194.704 354.89 195.147 360.578 196.315 366.073C196.52 375.429 196.818 384.781 197.212 394.13C197.679 399.125 197.815 404.134 197.62 409.157C197.263 415.374 197.693 421.396 198.91 427.222C199.917 443.125 200.953 459.178 202.017 475.382C201.379 486.617 201.945 497.648 203.715 508.474C203.676 519.813 203.563 531.15 203.376 542.487C198.483 549.445 191.957 554.192 183.8 556.728C180.395 556.752 177.076 556.287 173.847 555.335C166.904 545.085 163.353 533.603 163.195 520.889C163.026 509.536 162.807 498.186 162.535 486.836C162.939 475.282 162.386 463.918 160.876 452.745C160.273 440.222 160.106 427.539 160.373 414.695C160.643 406.17 160.305 397.818 159.359 389.636C158.782 386.325 158.58 382.981 158.754 379.604C159.175 373.054 158.758 366.7 157.503 360.54C156.017 334.818 154.696 309.08 153.54 283.325C153.584 277.978 153.961 272.656 154.669 267.357C155.154 264.814 156.078 262.514 157.443 260.461C161.742 259.756 166.086 259.594 170.472 259.973Z" fill="#102731"/>
<path fill-rule="evenodd" clip-rule="evenodd" d="M157.442 260.46C156.078 262.514 155.153 264.813 154.669 267.356C153.961 272.656 153.584 277.978 153.539 283.324C152.629 277.131 152.712 270.796 153.788 264.319C154.519 262.523 155.738 261.237 157.442 260.46Z" fill="#102731"/>
<path fill-rule="evenodd" clip-rule="evenodd" d="M184.225 266.52C186.267 267.686 187.534 269.403 188.025 271.673C185.982 270.507 184.716 268.79 184.225 266.52Z" fill="#102731"/>
<path fill-rule="evenodd" clip-rule="evenodd" d="M891.912 288.395C889.38 291.701 886.277 294.248 882.604 296.035C885.136 292.729 888.239 290.182 891.912 288.395Z" fill="#102731"/>
<path fill-rule="evenodd" clip-rule="evenodd" d="M735.482 296.244C733.294 299.233 730.537 301.459 727.213 302.923C729.401 299.934 732.158 297.708 735.482 296.244Z" fill="#102731"/>
<path fill-rule="evenodd" clip-rule="evenodd" d="M962.714 320.208C962.9 324.402 963.409 328.425 964.24 332.277C963.829 338.169 964.273 343.858 965.57 349.343C970.382 418.048 974.673 486.938 978.444 556.01C978.309 561.882 978.752 567.571 979.773 573.075C980.932 580.259 980.324 587.241 977.947 594.02C973.056 599.48 966.989 601.076 959.745 598.807C952.441 593.333 946.189 586.915 940.988 579.553C939.403 560.334 937.986 541.263 936.737 522.342C937.342 516.431 936.899 510.742 935.408 505.276C935.056 497.256 934.706 489.236 934.354 481.216C934.765 475.324 934.322 469.635 933.025 464.15C931.74 457.658 931.336 450.97 931.814 444.087C932.215 439.499 931.72 435.144 930.327 431.019C929.691 414.601 928.669 398.215 927.26 381.86C927.865 375.949 927.422 370.26 925.931 364.794C925.344 351.397 924.537 338.021 923.508 324.668C924.328 311.569 931.193 306.669 944.103 309.967C951.922 310.657 958.126 314.071 962.714 320.208Z" fill="#102731"/>
<path fill-rule="evenodd" clip-rule="evenodd" d="M190.825 276.787C192.694 279.447 193.575 282.484 193.469 285.898C191.764 283.184 190.883 280.147 190.825 276.787Z" fill="#102731"/>
<path fill-rule="evenodd" clip-rule="evenodd" d="M962.715 320.208C964.319 323.957 964.828 327.98 964.241 332.277C963.41 328.425 962.901 324.402 962.715 320.208Z" fill="#102731"/>
<path fill-rule="evenodd" clip-rule="evenodd" d="M469.861 306.795C468.991 308.255 467.632 308.869 465.785 308.636C464.561 308.568 463.575 308.196 462.827 307.519C465.226 307.665 467.57 307.424 469.861 306.795Z" fill="#102731"/>
<path fill-rule="evenodd" clip-rule="evenodd" d="M996.727 320.547C997.89 323.684 998.424 327.041 998.332 330.618C997.72 330.483 997.234 330.13 996.873 329.56C996.493 326.56 996.444 323.556 996.727 320.547Z" fill="#102731"/>
<path fill-rule="evenodd" clip-rule="evenodd" d="M1037.97 315.166C1039.27 320.65 1039.71 326.339 1039.3 332.232C1038.01 326.747 1037.56 321.059 1037.97 315.166Z" fill="#102731"/>
<path fill-rule="evenodd" clip-rule="evenodd" d="M998.293 331.617C999.255 336.792 999.712 342.147 999.662 347.683C998.285 342.542 997.829 337.187 998.293 331.617Z" fill="#102731"/>
<path fill-rule="evenodd" clip-rule="evenodd" d="M77.165 291.324C78.437 301.165 78.7094 311.183 77.9825 321.38C77.3245 311.523 77.0521 301.505 77.165 291.324Z" fill="#102731"/>
<path fill-rule="evenodd" clip-rule="evenodd" d="M964.24 332.277C965.643 337.752 966.086 343.441 965.57 349.343C964.272 343.858 963.829 338.169 964.24 332.277Z" fill="#102731"/>
<path fill-rule="evenodd" clip-rule="evenodd" d="M695.976 333.717C693.226 336.742 690.277 339.628 687.128 342.376C686.608 343.304 686.403 344.297 686.511 345.354C685.457 344.21 685.342 342.872 686.168 341.337C689.061 338.171 692.331 335.632 695.976 333.717Z" fill="#102731"/>
<path fill-rule="evenodd" clip-rule="evenodd" d="M890.077 360.379C889.606 364.654 890.114 368.677 891.603 372.449C891.511 374.78 891.419 377.112 891.327 379.443C891.547 384.294 892.03 388.983 892.774 393.511C894.323 422.957 896.166 452.386 898.303 481.797C897.96 487.357 898.417 492.712 899.672 497.864C899.235 501.062 899.45 504.073 900.317 506.896C900.337 512.296 899.794 517.612 898.688 522.844C886.179 525.576 876.498 521.526 869.643 510.691C866.879 506.873 864.872 502.79 863.621 498.445C862.327 492.645 861.218 486.931 860.293 481.301C860.346 479.969 860.398 478.636 860.451 477.304C860.453 472.43 859.971 467.741 859.003 463.236C859.165 451.823 858.612 440.459 857.344 429.144C857.606 423.919 857.136 418.897 855.936 414.077C854.729 403.756 854.636 393.412 855.658 383.042C857.547 373.582 862.351 365.932 870.072 360.092C872.708 359.556 875.086 358.482 877.205 356.87C880.538 356.004 883.876 355.969 887.217 356.764C888.385 357.85 889.338 359.055 890.077 360.379Z" fill="#102731"/>
<path fill-rule="evenodd" clip-rule="evenodd" d="M436.704 335.512C437.872 339.08 437.728 342.743 436.271 346.503C434.68 348.339 433.27 350.285 432.038 352.341C434.005 346.837 435.56 341.227 436.704 335.512Z" fill="#102731"/>
<path fill-rule="evenodd" clip-rule="evenodd" d="M244.381 339.944C240.657 339.62 236.979 339.809 233.35 340.51C233.485 339.898 233.838 339.412 234.408 339.051C237.964 338.382 241.288 338.681 244.381 339.944Z" fill="#102731"/>
<path fill-rule="evenodd" clip-rule="evenodd" d="M1041.2 360.328C1043.44 368.732 1044.1 377.432 1043.17 386.426C1042.84 386.413 1042.5 386.4 1042.17 386.387C1041.41 377.722 1041.08 369.035 1041.2 360.328Z" fill="#102731"/>
<path fill-rule="evenodd" clip-rule="evenodd" d="M244.381 339.944C246.379 340.023 248.378 340.102 250.376 340.181C250.794 341.604 251.766 342.31 253.295 342.297C261.174 345.787 266.447 351.666 269.113 359.933C270.004 368.642 270.829 377.348 271.587 386.051C271.29 389.392 271.326 392.729 271.693 396.063C271.876 397.308 272.336 398.327 273.074 399.12C274.68 421.878 276.286 444.624 277.891 467.362C279.388 485.213 271.749 497.089 254.971 502.988C250.857 503.588 246.866 503.265 243 502.016C241.754 500.583 240.987 498.886 240.698 496.921C240.643 493.721 240.262 490.704 239.554 487.869C239.58 487.202 239.606 486.537 239.633 485.871C239.634 480.997 239.153 476.308 238.185 471.803C238.006 461.414 237.414 451.048 236.408 440.709C236.515 433.458 235.792 426.424 234.237 419.607C234.719 415.42 234.543 411.41 233.71 407.577C233.902 402.029 233.445 396.674 232.342 391.51C231.833 384.165 231.456 376.811 231.209 369.449C230.954 361.092 230.616 352.738 230.195 344.389C230.508 342.496 231.559 341.203 233.35 340.511C236.979 339.809 240.657 339.62 244.381 339.944Z" fill="#102731"/>
<path fill-rule="evenodd" clip-rule="evenodd" d="M250.376 340.181C251.904 340.168 252.877 340.874 253.295 342.297C251.766 342.31 250.793 341.604 250.376 340.181Z" fill="#102731"/>
<path fill-rule="evenodd" clip-rule="evenodd" d="M890.076 360.379C891.68 364.128 892.189 368.151 891.603 372.449C890.114 368.677 889.606 364.654 890.076 360.379Z" fill="#102731"/>
<path fill-rule="evenodd" clip-rule="evenodd" d="M193.696 330.942C194.951 336.093 195.408 341.449 195.065 347.008C193.81 341.857 193.353 336.502 193.696 330.942Z" fill="#102731"/>
<path fill-rule="evenodd" clip-rule="evenodd" d="M925.931 364.794C927.422 370.26 927.866 375.949 927.261 381.86C926.092 376.365 925.65 370.677 925.931 364.794Z" fill="#102731"/>
<path fill-rule="evenodd" clip-rule="evenodd" d="M78.3524 337.406C79.3982 341.569 79.8937 345.925 79.839 350.475C78.3223 346.367 77.8268 342.011 78.3524 337.406Z" fill="#102731"/>
<path fill-rule="evenodd" clip-rule="evenodd" d="M230.195 344.389C230.615 352.738 230.954 361.092 231.209 369.449C229.128 361.121 228.79 352.768 230.195 344.389Z" fill="#102731"/>
<path fill-rule="evenodd" clip-rule="evenodd" d="M119.478 335.023C120.483 341.198 120.9 347.552 120.729 354.087C119.474 347.928 119.057 341.574 119.478 335.023Z" fill="#102731"/>
<path fill-rule="evenodd" clip-rule="evenodd" d="M891.327 379.443C892.065 380.236 892.525 381.254 892.708 382.5C893.063 386.168 893.084 389.838 892.774 393.511C892.03 388.983 891.547 384.293 891.327 379.443Z" fill="#102731"/>
<path fill-rule="evenodd" clip-rule="evenodd" d="M1042.17 386.387C1042.5 386.4 1042.84 386.413 1043.17 386.426C1043.54 394.114 1043.9 401.8 1044.26 409.487C1042.51 402.018 1041.81 394.319 1042.17 386.387Z" fill="#102731"/>
<path fill-rule="evenodd" clip-rule="evenodd" d="M194.986 349.007C196.389 354.482 196.832 360.171 196.315 366.072C195.147 360.578 194.704 354.889 194.986 349.007Z" fill="#102731"/>
<path fill-rule="evenodd" clip-rule="evenodd" d="M79.8387 350.475C80.9643 354.966 81.4467 359.655 81.286 364.543C79.517 360.255 79.0345 355.567 79.8387 350.475Z" fill="#102731"/>
<path fill-rule="evenodd" clip-rule="evenodd" d="M713.874 387.463C715.359 389.532 716.266 391.904 716.596 394.576C714.33 392.809 713.423 390.439 713.874 387.463Z" fill="#102731"/>
<path fill-rule="evenodd" clip-rule="evenodd" d="M81.2856 364.543C82.5411 369.694 82.9973 375.049 82.6542 380.609C81.9496 380.163 81.4762 379.478 81.2341 378.552C80.9185 373.881 80.9357 369.212 81.2856 364.543Z" fill="#102731"/>
<path fill-rule="evenodd" clip-rule="evenodd" d="M157.502 360.54C158.757 366.699 159.174 373.054 158.753 379.604C157.616 373.438 157.198 367.083 157.502 360.54Z" fill="#102731"/>
<path fill-rule="evenodd" clip-rule="evenodd" d="M778.509 398.016C776.788 401.215 774.352 403.788 771.2 405.735C772.921 402.536 775.357 399.963 778.509 398.016Z" fill="#102731"/>
<path fill-rule="evenodd" clip-rule="evenodd" d="M271.587 386.051C272.486 390.229 272.982 394.585 273.074 399.12C272.336 398.327 271.876 397.308 271.693 396.063C271.326 392.729 271.29 389.392 271.587 386.051Z" fill="#102731"/>
<path fill-rule="evenodd" clip-rule="evenodd" d="M121.703 380.146C122.85 387.317 123.227 394.67 122.836 402.208C121.802 395.032 121.424 387.678 121.703 380.146Z" fill="#102731"/>
<path fill-rule="evenodd" clip-rule="evenodd" d="M159.359 389.636C160.305 397.817 160.643 406.17 160.373 414.695C159.151 406.525 158.813 398.171 159.359 389.636Z" fill="#102731"/>
<path fill-rule="evenodd" clip-rule="evenodd" d="M232.342 391.51C233.445 396.674 233.902 402.029 233.71 407.577C232.455 402.425 231.999 397.07 232.342 391.51Z" fill="#102731"/>
<path fill-rule="evenodd" clip-rule="evenodd" d="M197.211 394.129C197.948 394.922 198.409 395.941 198.592 397.186C198.933 401.189 198.943 405.192 198.619 409.197C198.286 409.183 197.952 409.17 197.62 409.157C197.815 404.134 197.679 399.125 197.211 394.129Z" fill="#102731"/>
<path fill-rule="evenodd" clip-rule="evenodd" d="M855.936 414.077C857.136 418.897 857.606 423.919 857.344 429.144C856.001 424.337 855.532 419.315 855.936 414.077Z" fill="#102731"/>
<path fill-rule="evenodd" clip-rule="evenodd" d="M721.646 418.794C723.036 421.895 723.572 425.253 723.251 428.865C722.089 425.728 721.555 422.371 721.646 418.794Z" fill="#102731"/>
<path fill-rule="evenodd" clip-rule="evenodd" d="M82.4577 385.605C83.5151 392.111 83.9187 398.799 83.6688 405.669C82.9642 405.223 82.4908 404.537 82.2487 403.611C81.9854 397.605 82.0551 391.603 82.4577 385.605Z" fill="#102731"/>
<path fill-rule="evenodd" clip-rule="evenodd" d="M930.327 431.018C931.72 435.143 932.215 439.499 931.814 444.087C930.297 439.979 929.801 435.623 930.327 431.018Z" fill="#102731"/>
<path fill-rule="evenodd" clip-rule="evenodd" d="M424.601 414.097C425.849 421.324 426.892 428.705 427.732 436.237C425.284 429.172 424.241 421.793 424.601 414.097Z" fill="#102731"/>
<path fill-rule="evenodd" clip-rule="evenodd" d="M1006.83 445.041C1008.33 450.507 1008.77 456.196 1008.16 462.107C1007 456.612 1006.55 450.924 1006.83 445.041Z" fill="#102731"/>
<path fill-rule="evenodd" clip-rule="evenodd" d="M197.62 409.157C197.952 409.17 198.286 409.183 198.619 409.197C198.849 415.201 198.945 421.21 198.909 427.222C197.692 421.396 197.262 415.374 197.62 409.157Z" fill="#102731"/>
<path fill-rule="evenodd" clip-rule="evenodd" d="M234.237 419.607C235.792 426.424 236.516 433.458 236.408 440.709C234.941 433.882 234.217 426.848 234.237 419.607Z" fill="#102731"/>
<path fill-rule="evenodd" clip-rule="evenodd" d="M427.733 436.237C428.902 437.998 429.49 440.023 429.495 442.311C427.775 440.752 427.188 438.727 427.733 436.237Z" fill="#102731"/>
<path fill-rule="evenodd" clip-rule="evenodd" d="M933.025 464.15C934.322 469.635 934.766 475.324 934.355 481.216C933.334 475.711 932.89 470.023 933.025 464.15Z" fill="#102731"/>
<path fill-rule="evenodd" clip-rule="evenodd" d="M723.266 453.885C723.488 456.624 722.73 458.93 720.992 460.801C721.007 458.147 721.764 455.842 723.266 453.885Z" fill="#102731"/>
<path fill-rule="evenodd" clip-rule="evenodd" d="M84.1564 418.698C85.2635 425.536 85.6541 432.557 85.3281 439.761C84.1129 432.928 83.7222 425.908 84.1564 418.698Z" fill="#102731"/>
<path fill-rule="evenodd" clip-rule="evenodd" d="M431.218 449.385C435.526 456.384 439.58 463.549 443.381 470.88C442.528 469.748 441.695 469.715 440.883 470.782C439.309 468.385 437.736 465.987 436.162 463.59C434.579 461.972 434.312 460.294 435.36 458.555C431.831 456.536 430.45 453.479 431.218 449.385Z" fill="#102731"/>
<path fill-rule="evenodd" clip-rule="evenodd" d="M859.004 463.236C859.971 467.741 860.453 472.43 860.451 477.304C859.022 472.844 858.539 468.155 859.004 463.236Z" fill="#102731"/>
<path fill-rule="evenodd" clip-rule="evenodd" d="M85.3281 439.76C86.6124 446.253 87.0161 452.941 86.5392 459.823C85.4818 453.318 85.0782 446.63 85.3281 439.76Z" fill="#102731"/>
<path fill-rule="evenodd" clip-rule="evenodd" d="M860.294 481.3C861.219 486.931 862.327 492.645 863.621 498.445C860.474 493.238 859.365 487.523 860.294 481.3Z" fill="#102731"/>
<path fill-rule="evenodd" clip-rule="evenodd" d="M714.289 478.55C712.991 482.989 711.155 487.253 708.781 491.344C708.293 492.123 707.613 492.429 706.743 492.264C708.78 487.324 711.295 482.754 714.289 478.55Z" fill="#102731"/>
<path fill-rule="evenodd" clip-rule="evenodd" d="M898.304 481.797C899.407 486.96 899.864 492.316 899.672 497.863C898.417 492.712 897.96 487.357 898.304 481.797Z" fill="#102731"/>
<path fill-rule="evenodd" clip-rule="evenodd" d="M451.94 482.226C453.983 483.392 455.249 485.109 455.74 487.379C453.698 486.213 452.431 484.496 451.94 482.226Z" fill="#102731"/>
<path fill-rule="evenodd" clip-rule="evenodd" d="M1009.86 495.199C1011.35 500.665 1011.8 506.354 1011.19 512.265C1010.02 506.771 1009.58 501.082 1009.86 495.199Z" fill="#102731"/>
<path fill-rule="evenodd" clip-rule="evenodd" d="M160.876 452.745C162.386 463.918 162.939 475.282 162.535 486.836C162.202 486.823 161.869 486.81 161.536 486.797C161.377 475.445 161.156 464.094 160.876 452.745Z" fill="#102731"/>
<path fill-rule="evenodd" clip-rule="evenodd" d="M238.185 471.803C239.153 476.308 239.634 480.997 239.632 485.871C238.095 481.426 237.613 476.737 238.185 471.803Z" fill="#102731"/>
<path fill-rule="evenodd" clip-rule="evenodd" d="M699.315 502.98C700.372 502.873 701.365 503.078 702.293 503.598C712.447 514.656 722.685 525.734 733.008 536.833C755.472 557.662 777.307 579.205 798.515 601.462C831.019 637.329 863.628 673.307 896.342 709.396C901.167 713.923 905.993 718.45 910.818 722.977C937.802 753.563 965.478 783.509 993.846 812.815C1003.74 825.421 1013.41 838.145 1022.87 850.987C1015.63 848.878 1009.09 845.451 1003.26 840.707C983.537 818.849 963.36 797.538 942.725 776.775C904.824 735.591 867.09 694.24 829.521 652.722C790.887 612.133 752.114 571.742 713.201 531.549C712.385 528.926 710.798 526.862 708.441 525.357C704.815 520.24 701.182 515.093 697.541 509.916C696.953 507.891 697.032 505.893 697.777 503.92C698.181 503.38 698.694 503.067 699.315 502.98Z" fill="#102731"/>
<path fill-rule="evenodd" clip-rule="evenodd" d="M202.016 475.382C203.143 486.24 203.71 497.27 203.715 508.474C201.944 497.648 201.378 486.617 202.016 475.382Z" fill="#102731"/>
<path fill-rule="evenodd" clip-rule="evenodd" d="M935.408 505.276C936.899 510.742 937.342 516.431 936.737 522.342C935.568 516.847 935.126 511.158 935.408 505.276Z" fill="#102731"/>
<path fill-rule="evenodd" clip-rule="evenodd" d="M900.317 506.896C901.276 511.753 901.245 516.756 900.226 521.904C899.821 522.444 899.308 522.757 898.688 522.844C899.794 517.612 900.337 512.296 900.317 506.896Z" fill="#102731"/>
<path fill-rule="evenodd" clip-rule="evenodd" d="M1011.19 512.265C1012.68 517.731 1013.13 523.42 1012.52 529.33C1011.35 523.836 1010.91 518.147 1011.19 512.265Z" fill="#102731"/>
<path fill-rule="evenodd" clip-rule="evenodd" d="M239.554 487.869C240.262 490.704 240.643 493.722 240.698 496.921C240.987 498.886 241.754 500.584 242.999 502.016C240.735 501.67 239.622 500.291 239.66 497.881C239.293 494.547 239.257 491.21 239.554 487.869Z" fill="#102731"/>
<path fill-rule="evenodd" clip-rule="evenodd" d="M708.441 525.356C710.798 526.861 712.385 528.925 713.201 531.549C710.845 530.044 709.258 527.98 708.441 525.356Z" fill="#102731"/>
<path fill-rule="evenodd" clip-rule="evenodd" d="M161.535 486.797C161.868 486.81 162.202 486.823 162.534 486.836C162.806 498.186 163.025 509.536 163.194 520.889C161.762 509.713 161.209 498.348 161.535 486.797Z" fill="#102731"/>
<path fill-rule="evenodd" clip-rule="evenodd" d="M1012.52 529.33C1014.14 537.813 1014.8 546.513 1014.49 555.428C1013.19 546.916 1012.53 538.216 1012.52 529.33Z" fill="#102731"/>
<path fill-rule="evenodd" clip-rule="evenodd" d="M439.375 521.762C437.186 524.751 434.43 526.977 431.105 528.441C433.294 525.452 436.05 523.226 439.375 521.762Z" fill="#102731"/>
<path fill-rule="evenodd" clip-rule="evenodd" d="M203.715 508.474C205.187 519.843 205.075 531.181 203.376 542.487C203.563 531.15 203.675 519.812 203.715 508.474Z" fill="#102731"/>
<path fill-rule="evenodd" clip-rule="evenodd" d="M507.046 531.433C509.783 534.01 513.049 535.806 516.841 536.823C539.216 549.32 563.308 555.941 589.115 556.683C592.456 556.98 595.793 556.944 599.127 556.577C600.372 556.394 601.391 555.934 602.184 555.197C613.039 553.924 623.789 552.013 634.435 549.462C638.211 549.791 641.581 548.923 644.545 546.858C650.436 544.688 655.89 541.734 660.907 537.995C666.255 537.191 670.866 538.707 674.738 542.543C752.445 626.452 830.559 709.759 909.082 792.462C925.666 810.928 942.456 829.269 959.454 847.488C960.161 849.45 959.602 850.929 957.778 851.925C949.43 852.208 941.084 852.379 932.739 852.44C919.399 852.594 906.064 852.402 892.73 851.864C873.831 849.737 854.878 848.156 835.873 847.123C833.672 846.474 831.713 845.396 829.996 843.889C818.54 829.409 805.715 816.228 791.523 804.343C768.125 779.372 744.408 754.752 720.375 730.485C701.577 709.449 682.726 688.358 663.822 667.21C636.938 642.034 610.251 616.631 583.76 590.999C581.391 590.194 579.053 590.269 576.746 591.223C561.115 605.991 544.883 620.03 528.05 633.339C466.568 695.14 403.474 755.536 338.771 814.528C334.47 817.451 329.728 819.266 324.545 819.972C303.545 819.645 282.555 818.985 261.575 817.992C247.34 815.677 233.031 814.78 218.647 815.3C213.965 815.783 209.296 815.765 204.638 815.248C203.283 814.238 202.669 812.88 202.797 811.173C204.931 805.906 207.953 801.188 211.862 797.019C225.74 783.712 239.447 770.241 252.984 756.606C256.714 755.085 259.483 752.526 261.293 748.927C279.698 731.116 297.919 713.153 315.957 695.037C350.181 664.852 383.595 633.811 416.201 601.911C421.613 598.517 426.447 594.371 430.702 589.473C442.168 577.268 453.658 565.043 465.172 552.801C475.909 543.679 486.768 534.765 497.75 526.063C500.488 528.506 503.587 530.295 507.046 531.433Z" fill="#102731"/>
<path fill-rule="evenodd" clip-rule="evenodd" d="M507.047 531.433C508.425 531.33 509.751 531.55 511.024 532.09C512.985 533.763 514.925 535.34 516.842 536.823C513.05 535.806 509.784 534.01 507.047 531.433Z" fill="#102731"/>
<path fill-rule="evenodd" clip-rule="evenodd" d="M1054.86 547.011C1056.47 556.191 1057.43 565.569 1057.75 575.147C1055.77 566.003 1054.81 556.625 1054.86 547.011Z" fill="#102731"/>
<path fill-rule="evenodd" clip-rule="evenodd" d="M644.546 546.858C641.581 548.923 638.212 549.791 634.436 549.462C637.508 547.805 640.878 546.937 644.546 546.858Z" fill="#102731"/>
<path fill-rule="evenodd" clip-rule="evenodd" d="M87.5293 510.902C88.6975 516.396 89.1406 522.085 88.8585 527.968C87.5613 522.483 87.1183 516.794 87.5293 510.902Z" fill="#102731"/>
<path fill-rule="evenodd" clip-rule="evenodd" d="M978.444 556.009C979.741 561.494 980.185 567.182 979.774 573.075C978.752 567.57 978.309 561.882 978.444 556.009Z" fill="#102731"/>
<path fill-rule="evenodd" clip-rule="evenodd" d="M602.184 555.197C601.392 555.934 600.373 556.394 599.128 556.578C595.794 556.945 592.457 556.98 589.116 556.684C593.307 555.899 597.663 555.403 602.184 555.197Z" fill="#102731"/>
<path fill-rule="evenodd" clip-rule="evenodd" d="M276.634 537.367C273.758 540.991 270.309 543.857 266.287 545.967C269.163 542.343 272.612 539.477 276.634 537.367Z" fill="#102731"/>
<path fill-rule="evenodd" clip-rule="evenodd" d="M979.774 573.075C981.34 578.564 981.616 584.245 980.603 590.121C980.332 591.932 979.446 593.231 977.948 594.019C980.324 587.241 980.933 580.259 979.774 573.075Z" fill="#102731"/>
<path fill-rule="evenodd" clip-rule="evenodd" d="M1057.75 575.146C1059.1 579.681 1060.58 584.41 1062.2 589.332C1061.13 593.916 1060.61 598.566 1060.65 603.282C1059.04 594.101 1058.08 584.722 1057.75 575.146Z" fill="#102731"/>
<path fill-rule="evenodd" clip-rule="evenodd" d="M173.847 555.334C177.076 556.286 180.394 556.751 183.8 556.727C180.953 557.754 177.949 557.803 174.787 556.873C174.246 556.468 173.933 555.955 173.847 555.334Z" fill="#102731"/>
<path fill-rule="evenodd" clip-rule="evenodd" d="M89.1882 544.994C90.2456 551.5 90.6492 558.188 90.3993 565.057C89.6947 564.611 89.2213 563.926 88.9792 563C88.7159 556.994 88.7855 550.992 89.1882 544.994Z" fill="#102731"/>
<path fill-rule="evenodd" clip-rule="evenodd" d="M90.9259 577.087C91.7694 581.604 92.2518 586.294 92.3733 591.155C91.636 590.363 91.1757 589.344 90.9925 588.099C90.6381 584.43 90.6158 580.76 90.9259 577.087Z" fill="#102731"/>
<path fill-rule="evenodd" clip-rule="evenodd" d="M430.702 589.473C426.447 594.371 421.613 598.517 416.201 601.911C420.456 597.013 425.29 592.867 430.702 589.473Z" fill="#102731"/>
<path fill-rule="evenodd" clip-rule="evenodd" d="M360.402 595.71C354.731 602.402 348.479 608.661 341.649 614.486C341.037 614.927 340.364 615.067 339.631 614.907C346.234 608.162 353.159 601.763 360.402 595.71Z" fill="#102731"/>
<path fill-rule="evenodd" clip-rule="evenodd" d="M586.296 653.648C580.559 653.68 574.871 654.123 569.231 654.977C569.366 654.365 569.718 653.878 570.289 653.517C575.811 652.39 581.147 652.433 586.296 653.648Z" fill="#102731"/>
<path fill-rule="evenodd" clip-rule="evenodd" d="M586.297 653.648C593.059 655.231 597.398 659.405 599.314 666.17C599.92 675.043 600.744 683.749 601.788 692.287C601.478 695.96 601.499 699.63 601.854 703.299C602.037 704.544 602.498 705.563 603.235 706.355C603.196 707.355 603.156 708.354 603.117 709.353C602.877 717.599 603.561 725.632 605.17 733.453C608.145 758.699 610.478 784.145 612.17 809.787C612.251 820.504 607.013 826.468 596.454 827.682C582.175 830.953 573.885 825.455 571.584 811.191C570.376 795.075 568.841 779.002 566.978 762.972C567.389 757.08 566.946 751.391 565.649 745.906C565.086 733.985 563.879 722.261 562.031 710.737C560.237 695.391 559.342 680.01 559.345 664.595C561.51 660.188 564.806 656.982 569.231 654.977C574.871 654.123 580.56 653.68 586.297 653.648Z" fill="#102731"/>
<path fill-rule="evenodd" clip-rule="evenodd" d="M315.703 637.983C310.086 645.101 303.507 651.18 295.97 656.221C302.228 649.795 308.805 643.716 315.703 637.983Z" fill="#102731"/>
<path fill-rule="evenodd" clip-rule="evenodd" d="M601.787 692.288C602.532 696.815 603.014 701.505 603.235 706.355C602.497 705.563 602.037 704.544 601.854 703.299C601.499 699.63 601.477 695.96 601.787 692.288Z" fill="#102731"/>
<path fill-rule="evenodd" clip-rule="evenodd" d="M603.116 709.353C604.725 717.173 605.409 725.207 605.169 733.453C603.561 725.632 602.876 717.599 603.116 709.353Z" fill="#102731"/>
<path fill-rule="evenodd" clip-rule="evenodd" d="M562.03 710.737C563.879 722.262 565.085 733.985 565.649 745.907C563.048 734.455 561.843 722.732 562.03 710.737Z" fill="#102731"/>
<path fill-rule="evenodd" clip-rule="evenodd" d="M565.649 745.906C566.946 751.391 567.389 757.08 566.978 762.972C565.681 757.488 565.237 751.799 565.649 745.906Z" fill="#102731"/>
<path fill-rule="evenodd" clip-rule="evenodd" d="M261.294 748.927C259.484 752.526 256.715 755.085 252.985 756.606C255.434 753.7 258.204 751.14 261.294 748.927Z" fill="#102731"/>
<path fill-rule="evenodd" clip-rule="evenodd" d="M218.647 815.3C233.031 814.78 247.34 815.677 261.575 817.992C247.242 817.438 232.933 816.541 218.647 815.3Z" fill="#102731"/>
<path fill-rule="evenodd" clip-rule="evenodd" d="M932.74 852.44C924.4 853.525 915.881 853.857 907.181 853.434C902.172 853.236 897.356 852.713 892.731 851.864C906.064 852.402 919.4 852.594 932.74 852.44Z" fill="#102731"/>
<circle cx="566.226" cy="413.892" r="105" transform="rotate(-0.203159 566.226 413.892)" fill="#102731"/>
<path d="M532.095 376.503C531.926 368.891 539.986 363.89 546.731 367.422L615.458 403.408C622.315 406.998 622.668 416.683 616.091 420.764L549.083 462.337C542.505 466.418 533.985 461.8 533.813 454.061L532.095 376.503Z" fill="#2B84C7"/>
</g>
<defs>
<clipPath id="clip0_73_21">
<rect width="1086" height="830" fill="white" transform="translate(33.0654 0.862793) rotate(2.25612)"/>
</clipPath>
</defs>
</svg>
    