<svg width="4598" height="2080" viewBox="0 0 4598 2080" fill="none" xmlns="http://www.w3.org/2000/svg">
<mask id="path-1-outside-1_89_96" maskUnits="userSpaceOnUse" x="3551" y="614" width="1047" height="1008" fill="black">
<rect fill="white" x="3551" y="614" width="1047" height="1008"/>
<path fill-rule="evenodd" clip-rule="evenodd" d="M4414.85 624.907C4399.16 627.819 4386.08 640.401 4359.93 665.565L4073.19 941.465L3788.54 666.113C3762.46 640.883 3749.41 628.268 3733.73 625.318C3727.21 624.093 3720.51 624.077 3713.99 625.272C3698.29 628.148 3685.19 640.702 3658.98 665.81C3653.74 670.831 3651.12 673.342 3650.5 676.361C3650.25 677.616 3650.25 678.906 3650.49 680.162C3651.09 683.184 3653.7 685.707 3658.92 690.753L3658.92 690.753L3658.92 690.753L3976.98 998.426C4003.26 977.003 4036.78 964.107 4073.32 963.977C4109.94 963.847 4143.62 976.559 4170.07 997.878L4489.52 690.503C4494.75 685.47 4497.36 682.954 4497.97 679.934C4498.22 678.679 4498.22 677.389 4497.97 676.134C4497.36 673.114 4494.75 670.598 4489.52 665.565C4463.37 640.401 4450.29 627.819 4434.6 624.907C4428.08 623.698 4421.37 623.698 4414.85 624.907ZM4196.96 1025.8C4215.91 1051.22 4227.18 1082.72 4227.3 1116.87C4227.42 1151.97 4215.75 1184.37 4196 1210.29L4515.38 1519.23C4520.6 1524.28 4523.21 1526.8 4526.35 1527.39C4527.65 1527.64 4528.99 1527.64 4530.29 1527.4C4533.43 1526.83 4536.05 1524.32 4541.3 1519.3L4541.3 1519.3C4567.51 1494.19 4580.61 1481.63 4583.67 1466.54C4584.95 1460.26 4584.96 1453.81 4583.72 1447.53C4580.74 1432.42 4567.69 1419.81 4541.61 1394.58L4256.11 1118.41L4543.93 842.932C4570.16 817.835 4583.27 805.287 4586.33 790.196C4587.61 783.926 4587.62 777.479 4586.38 771.203C4583.39 756.098 4570.34 743.488 4544.25 718.269L4544.25 718.269C4539.03 713.225 4536.42 710.703 4533.28 710.114C4531.98 709.869 4530.64 709.865 4529.33 710.104C4526.19 710.679 4523.57 713.189 4518.33 718.208L4196.96 1025.8ZM4169.46 1237.43C4143.38 1258.23 4110.36 1270.72 4074.41 1270.84C4037.46 1270.97 4003.51 1258.03 3976.95 1236.37L3657.3 1542.31C3652.06 1547.32 3649.44 1549.83 3648.82 1552.85C3648.57 1554.11 3648.56 1555.4 3648.81 1556.65C3649.41 1559.67 3652.02 1562.19 3657.24 1567.24C3683.33 1592.46 3696.38 1605.07 3712.07 1608.02C3718.59 1609.24 3725.29 1609.26 3731.82 1608.06C3747.52 1605.19 3760.63 1592.64 3786.86 1567.54L4072.7 1293.95L4359.28 1569.7L4359.28 1569.7C4385.43 1594.86 4398.5 1607.44 4414.2 1610.35C4420.72 1611.56 4427.42 1611.56 4433.94 1610.35C4449.64 1607.44 4462.71 1594.86 4488.86 1569.7C4494.1 1564.66 4496.71 1562.15 4497.32 1559.13C4497.57 1557.87 4497.57 1556.58 4497.32 1555.33C4496.71 1552.31 4494.09 1549.79 4488.86 1544.76L4169.46 1237.43ZM3950.71 1208.94C3931.79 1183.54 3920.55 1152.06 3920.43 1117.95C3920.31 1083.73 3931.4 1052.09 3950.25 1026.5L3630.12 718.465C3624.88 713.432 3622.27 710.916 3619.13 710.334C3617.83 710.092 3616.49 710.092 3615.18 710.334C3612.04 710.916 3609.43 713.432 3604.2 718.465L3604.2 718.465L3604.2 718.465L3604.2 718.465C3578.05 743.629 3564.97 756.21 3561.94 771.311C3560.69 777.586 3560.69 784.035 3561.94 790.309C3564.97 805.41 3578.05 817.992 3604.2 843.156L3889.78 1117.94L3604.85 1392.1C3578.7 1417.27 3565.62 1429.85 3562.6 1444.95C3561.34 1451.23 3561.34 1457.67 3562.6 1463.95C3565.62 1479.05 3578.7 1491.63 3604.85 1516.79C3610.08 1521.83 3612.7 1524.34 3615.84 1524.93C3617.14 1525.17 3618.48 1525.17 3619.79 1524.93C3622.92 1524.34 3625.54 1521.83 3630.77 1516.8L3630.77 1516.79L3950.71 1208.94Z"/>
</mask>
<path fill-rule="evenodd" clip-rule="evenodd" d="M4414.85 624.907C4399.16 627.819 4386.08 640.401 4359.93 665.565L4073.19 941.465L3788.54 666.113C3762.46 640.883 3749.41 628.268 3733.73 625.318C3727.21 624.093 3720.51 624.077 3713.99 625.272C3698.29 628.148 3685.19 640.702 3658.98 665.81C3653.74 670.831 3651.12 673.342 3650.5 676.361C3650.25 677.616 3650.25 678.906 3650.49 680.162C3651.09 683.184 3653.7 685.707 3658.92 690.753L3658.92 690.753L3658.92 690.753L3976.98 998.426C4003.26 977.003 4036.78 964.107 4073.32 963.977C4109.94 963.847 4143.62 976.559 4170.07 997.878L4489.52 690.503C4494.75 685.47 4497.36 682.954 4497.97 679.934C4498.22 678.679 4498.22 677.389 4497.97 676.134C4497.36 673.114 4494.75 670.598 4489.52 665.565C4463.37 640.401 4450.29 627.819 4434.6 624.907C4428.08 623.698 4421.37 623.698 4414.85 624.907ZM4196.96 1025.8C4215.91 1051.22 4227.18 1082.72 4227.3 1116.87C4227.42 1151.97 4215.75 1184.37 4196 1210.29L4515.38 1519.23C4520.6 1524.28 4523.21 1526.8 4526.35 1527.39C4527.65 1527.64 4528.99 1527.64 4530.29 1527.4C4533.43 1526.83 4536.05 1524.32 4541.3 1519.3L4541.3 1519.3C4567.51 1494.19 4580.61 1481.63 4583.67 1466.54C4584.95 1460.26 4584.96 1453.81 4583.72 1447.53C4580.74 1432.42 4567.69 1419.81 4541.61 1394.58L4256.11 1118.41L4543.93 842.932C4570.16 817.835 4583.27 805.287 4586.33 790.196C4587.61 783.926 4587.62 777.479 4586.38 771.203C4583.39 756.098 4570.34 743.488 4544.25 718.269L4544.25 718.269C4539.03 713.225 4536.42 710.703 4533.28 710.114C4531.98 709.869 4530.64 709.865 4529.33 710.104C4526.19 710.679 4523.57 713.189 4518.33 718.208L4196.96 1025.8ZM4169.46 1237.43C4143.38 1258.23 4110.36 1270.72 4074.41 1270.84C4037.46 1270.97 4003.51 1258.03 3976.95 1236.37L3657.3 1542.31C3652.06 1547.32 3649.44 1549.83 3648.82 1552.85C3648.57 1554.11 3648.56 1555.4 3648.81 1556.65C3649.41 1559.67 3652.02 1562.19 3657.24 1567.24C3683.33 1592.46 3696.38 1605.07 3712.07 1608.02C3718.59 1609.24 3725.29 1609.26 3731.82 1608.06C3747.52 1605.19 3760.63 1592.64 3786.86 1567.54L4072.7 1293.95L4359.28 1569.7L4359.28 1569.7C4385.43 1594.86 4398.5 1607.44 4414.2 1610.35C4420.72 1611.56 4427.42 1611.56 4433.94 1610.35C4449.64 1607.44 4462.71 1594.86 4488.86 1569.7C4494.1 1564.66 4496.71 1562.15 4497.32 1559.13C4497.57 1557.87 4497.57 1556.58 4497.32 1555.33C4496.71 1552.31 4494.09 1549.79 4488.86 1544.76L4169.46 1237.43ZM3950.71 1208.94C3931.79 1183.54 3920.55 1152.06 3920.43 1117.95C3920.31 1083.73 3931.4 1052.09 3950.25 1026.5L3630.12 718.465C3624.88 713.432 3622.27 710.916 3619.13 710.334C3617.83 710.092 3616.49 710.092 3615.18 710.334C3612.04 710.916 3609.43 713.432 3604.2 718.465L3604.2 718.465L3604.2 718.465L3604.2 718.465C3578.05 743.629 3564.97 756.21 3561.94 771.311C3560.69 777.586 3560.69 784.035 3561.94 790.309C3564.97 805.41 3578.05 817.992 3604.2 843.156L3889.78 1117.94L3604.85 1392.1C3578.7 1417.27 3565.62 1429.85 3562.6 1444.95C3561.34 1451.23 3561.34 1457.67 3562.6 1463.95C3565.62 1479.05 3578.7 1491.63 3604.85 1516.79C3610.08 1521.83 3612.7 1524.34 3615.84 1524.93C3617.14 1525.17 3618.48 1525.17 3619.79 1524.93C3622.92 1524.34 3625.54 1521.83 3630.77 1516.8L3630.77 1516.79L3950.71 1208.94Z" fill="#102731"/>
<path d="M4359.93 665.565L4366.86 672.771L4366.86 672.771L4359.93 665.565ZM4414.85 624.907L4416.68 634.74L4416.68 634.74L4414.85 624.907ZM4073.19 941.465L4066.24 948.653L4073.17 955.361L4080.13 948.671L4073.19 941.465ZM3788.54 666.113L3781.59 673.301L3781.59 673.301L3788.54 666.113ZM3733.73 625.318L3735.58 615.491L3735.58 615.491L3733.73 625.318ZM3713.99 625.272L3715.79 635.109L3715.79 635.109L3713.99 625.272ZM3658.98 665.81L3665.9 673.031L3665.9 673.031L3658.98 665.81ZM3650.5 676.361L3640.7 674.373L3640.7 674.373L3650.5 676.361ZM3650.49 680.162L3640.68 682.101L3640.68 682.101L3650.49 680.162ZM3658.92 690.753L3651.96 697.941L3652.18 698.15L3652.41 698.346L3658.92 690.753ZM3658.92 690.753L3665.99 683.682L3665.72 683.411L3665.42 683.161L3658.92 690.753ZM3658.92 690.753L3651.84 697.824L3651.9 697.883L3651.96 697.941L3658.92 690.753ZM3976.98 998.426L3970.03 1005.61L3976.41 1011.79L3983.3 1006.18L3976.98 998.426ZM4073.32 963.977L4073.29 953.977L4073.29 953.977L4073.32 963.977ZM4170.07 997.878L4163.8 1005.66L4170.66 1011.19L4177 1005.08L4170.07 997.878ZM4489.52 690.503L4482.59 683.297L4482.59 683.297L4489.52 690.503ZM4497.97 679.934L4507.78 681.899L4507.78 681.898L4497.97 679.934ZM4497.97 676.134L4507.78 674.169L4507.78 674.169L4497.97 676.134ZM4489.52 665.565L4482.59 672.771L4482.59 672.771L4489.52 665.565ZM4434.6 624.907L4436.42 615.075L4436.42 615.075L4434.6 624.907ZM4196.96 1025.8L4190.04 1018.57L4183.66 1024.68L4188.94 1031.77L4196.96 1025.8ZM4227.3 1116.87L4237.3 1116.83L4237.3 1116.83L4227.3 1116.87ZM4196 1210.29L4188.05 1204.23L4182.66 1211.3L4189.05 1217.48L4196 1210.29ZM4515.38 1519.23L4508.43 1526.42L4508.43 1526.42L4515.38 1519.23ZM4526.35 1527.39L4528.19 1517.57L4528.19 1517.57L4526.35 1527.39ZM4530.29 1527.4L4532.1 1537.24L4532.1 1537.24L4530.29 1527.4ZM4541.3 1519.3L4548.21 1526.52L4548.29 1526.44L4548.37 1526.37L4541.3 1519.3ZM4541.3 1519.3L4534.38 1512.07L4534.3 1512.15L4534.23 1512.22L4541.3 1519.3ZM4583.67 1466.54L4593.48 1468.53L4593.48 1468.53L4583.67 1466.54ZM4583.72 1447.53L4593.53 1445.6L4593.53 1445.6L4583.72 1447.53ZM4541.61 1394.58L4548.56 1387.39L4548.56 1387.39L4541.61 1394.58ZM4256.11 1118.41L4249.2 1111.18L4241.69 1118.37L4249.16 1125.6L4256.11 1118.41ZM4543.93 842.932L4537.02 835.708L4537.02 835.708L4543.93 842.932ZM4586.33 790.196L4576.53 788.206L4576.53 788.206L4586.33 790.196ZM4586.38 771.203L4596.19 769.262L4596.19 769.262L4586.38 771.203ZM4544.25 718.269L4536.78 724.913L4537.03 725.196L4537.3 725.46L4544.25 718.269ZM4544.25 718.269L4551.72 711.625L4551.47 711.342L4551.2 711.078L4544.25 718.269ZM4533.28 710.114L4535.13 700.286L4535.13 700.286L4533.28 710.114ZM4529.33 710.104L4531.13 719.941L4531.13 719.941L4529.33 710.104ZM4518.33 718.208L4525.24 725.433L4525.24 725.433L4518.33 718.208ZM4169.46 1237.43L4176.4 1230.22L4170.08 1224.15L4163.23 1229.61L4169.46 1237.43ZM4074.41 1270.84L4074.44 1280.84L4074.41 1270.84ZM3976.95 1236.37L3983.27 1228.62L3976.42 1223.03L3970.03 1229.14L3976.95 1236.37ZM3657.3 1542.31L3664.22 1549.53L3664.22 1549.53L3657.3 1542.31ZM3648.82 1552.85L3658.62 1554.84L3658.62 1554.84L3648.82 1552.85ZM3648.81 1556.65L3639 1558.59L3639 1558.59L3648.81 1556.65ZM3657.24 1567.24L3664.19 1560.05L3664.19 1560.05L3657.24 1567.24ZM3712.07 1608.02L3710.22 1617.84L3710.22 1617.84L3712.07 1608.02ZM3731.82 1608.06L3730.02 1598.22L3730.02 1598.22L3731.82 1608.06ZM3786.86 1567.54L3793.77 1574.77L3793.77 1574.77L3786.86 1567.54ZM4072.7 1293.95L4079.64 1286.75L4072.72 1280.09L4065.79 1286.73L4072.7 1293.95ZM4359.28 1569.7L4366.35 1562.62L4366.28 1562.56L4366.21 1562.49L4359.28 1569.7ZM4359.28 1569.7L4352.21 1576.77L4352.27 1576.83L4352.34 1576.9L4359.28 1569.7ZM4414.2 1610.35L4412.37 1620.18L4412.37 1620.18L4414.2 1610.35ZM4433.94 1610.35L4435.77 1620.18L4435.77 1620.18L4433.94 1610.35ZM4488.86 1569.7L4495.8 1576.9L4488.86 1569.7ZM4497.32 1559.13L4507.12 1561.09L4507.12 1561.09L4497.32 1559.13ZM4497.32 1555.33L4507.12 1553.36L4507.12 1553.36L4497.32 1555.33ZM4488.86 1544.76L4481.93 1551.96L4481.93 1551.96L4488.86 1544.76ZM3950.71 1208.94L3957.65 1216.15L3964 1210.04L3958.73 1202.97L3950.71 1208.94ZM3920.43 1117.95L3930.43 1117.92L3920.43 1117.95ZM3950.25 1026.5L3958.3 1032.43L3963.5 1025.37L3957.18 1019.29L3950.25 1026.5ZM3630.12 718.465L3623.18 725.671L3623.18 725.671L3630.12 718.465ZM3619.13 710.334L3617.31 720.166L3617.31 720.166L3619.13 710.334ZM3615.18 710.334L3613.36 700.501L3613.36 700.501L3615.18 710.334ZM3604.2 718.465L3597.26 711.259L3597.19 711.326L3597.13 711.394L3604.2 718.465ZM3604.2 718.465L3597.13 711.394L3596.97 711.548L3596.83 711.708L3604.2 718.465ZM3604.2 718.465L3611.27 725.536L3611.42 725.382L3611.57 725.222L3604.2 718.465ZM3604.2 718.465L3611.13 725.671L3611.2 725.604L3611.27 725.536L3604.2 718.465ZM3561.94 771.311L3571.75 773.276L3571.75 773.276L3561.94 771.311ZM3561.94 790.309L3571.75 788.344L3571.75 788.344L3561.94 790.309ZM3604.2 843.156L3611.13 835.95L3611.13 835.95L3604.2 843.156ZM3889.78 1117.94L3896.71 1125.15L3904.2 1117.94L3896.71 1110.74L3889.78 1117.94ZM3604.85 1392.1L3611.79 1399.31L3611.79 1399.31L3604.85 1392.1ZM3562.6 1444.95L3572.4 1446.92L3572.4 1446.92L3562.6 1444.95ZM3562.6 1463.95L3572.4 1461.98L3572.4 1461.98L3562.6 1463.95ZM3604.85 1516.79L3597.92 1524L3597.92 1524L3604.85 1516.79ZM3615.84 1524.93L3617.66 1515.09L3617.66 1515.09L3615.84 1524.93ZM3619.79 1524.93L3617.96 1515.09L3617.96 1515.09L3619.79 1524.93ZM3630.77 1516.8L3624.33 1509.15L3624.07 1509.36L3623.84 1509.59L3630.77 1516.8ZM3630.77 1516.79L3637.21 1524.44L3637.46 1524.23L3637.7 1524L3630.77 1516.79ZM4366.86 672.771C4380.09 660.045 4389.47 651.032 4397.48 644.766C4405.34 638.612 4411.05 635.784 4416.68 634.74L4413.03 615.075C4402.97 616.942 4394.29 621.862 4385.15 629.018C4376.15 636.061 4365.92 645.921 4353 658.359L4366.86 672.771ZM4080.13 948.671L4366.86 672.771L4353 658.359L4066.26 934.259L4080.13 948.671ZM3781.59 673.301L4066.24 948.653L4080.15 934.278L3795.49 658.926L3781.59 673.301ZM3731.88 635.146C3737.51 636.204 3743.21 639.045 3751.05 645.218C3759.04 651.505 3768.4 660.541 3781.59 673.301L3795.49 658.926C3782.6 646.455 3772.4 636.569 3763.42 629.503C3754.3 622.324 3745.64 617.382 3735.58 615.491L3731.88 635.146ZM3715.79 635.109C3721.11 634.135 3726.57 634.147 3731.88 635.146L3735.58 615.491C3727.86 614.038 3719.92 614.02 3712.19 615.436L3715.79 635.109ZM3665.9 673.031C3679.15 660.333 3688.56 651.341 3696.57 645.091C3704.45 638.954 3710.16 636.14 3715.79 635.109L3712.19 615.436C3702.12 617.28 3693.44 622.181 3684.28 629.317C3675.27 636.34 3665.02 646.178 3652.06 658.588L3665.9 673.031ZM3660.3 678.35C3660.13 679.195 3659.75 679.34 3660.63 678.311C3661.6 677.162 3663.12 675.689 3665.9 673.031L3652.06 658.588C3649.59 660.952 3647.18 663.245 3645.38 665.362C3643.48 667.598 3641.49 670.508 3640.7 674.373L3660.3 678.35ZM3660.3 678.222C3660.31 678.264 3660.31 678.309 3660.3 678.35L3640.7 674.373C3640.19 676.923 3640.18 679.548 3640.68 682.101L3660.3 678.222ZM3665.87 683.566C3663.11 680.895 3661.6 679.415 3660.63 678.262C3659.76 677.229 3660.14 677.376 3660.3 678.222L3640.68 682.101C3641.45 685.97 3643.43 688.89 3645.32 691.135C3647.11 693.261 3649.51 695.565 3651.96 697.941L3665.87 683.566ZM3665.42 683.161L3665.42 683.161L3652.41 698.346L3652.41 698.346L3665.42 683.161ZM3665.99 683.682L3665.99 683.682L3651.84 697.824L3651.84 697.824L3665.99 683.682ZM3983.93 991.238L3665.87 683.566L3651.96 697.941L3970.03 1005.61L3983.93 991.238ZM3983.3 1006.18C4007.87 986.148 4039.18 974.098 4073.36 973.977L4073.29 953.977C4034.37 954.115 3998.65 967.857 3970.66 990.675L3983.3 1006.18ZM4073.36 973.977C4107.6 973.856 4139.06 985.733 4163.8 1005.66L4176.35 990.091C4148.17 967.385 4112.29 953.839 4073.29 953.977L4073.36 973.977ZM4482.59 683.297L4163.14 990.672L4177 1005.08L4496.45 697.709L4482.59 683.297ZM4488.17 677.969C4488.33 677.122 4488.72 676.975 4487.84 678.006C4486.87 679.157 4485.35 680.633 4482.59 683.297L4496.45 697.709C4498.92 695.34 4501.32 693.042 4503.11 690.921C4505.01 688.681 4507 685.766 4507.78 681.899L4488.17 677.969ZM4488.17 678.099C4488.16 678.057 4488.16 678.011 4488.17 677.969L4507.78 681.898C4508.29 679.346 4508.29 676.721 4507.78 674.169L4488.17 678.099ZM4482.59 672.771C4485.35 675.434 4486.87 676.911 4487.84 678.061C4488.72 679.093 4488.33 678.946 4488.17 678.099L4507.78 674.169C4507 670.302 4505.01 667.387 4503.11 665.147C4501.32 663.026 4498.92 660.728 4496.45 658.359L4482.59 672.771ZM4432.77 634.74C4438.4 635.784 4444.11 638.612 4451.97 644.766C4459.98 651.032 4469.36 660.045 4482.59 672.771L4496.45 658.359C4483.53 645.921 4473.3 636.061 4464.3 629.018C4455.16 621.862 4446.48 616.942 4436.42 615.075L4432.77 634.74ZM4416.68 634.74C4421.99 633.753 4427.46 633.753 4432.77 634.74L4436.42 615.075C4428.69 613.642 4420.76 613.642 4413.03 615.075L4416.68 634.74ZM4188.94 1031.77C4206.66 1055.54 4217.18 1084.97 4217.3 1116.9L4237.3 1116.83C4237.17 1080.47 4225.16 1046.9 4204.97 1019.82L4188.94 1031.77ZM4217.3 1116.9C4217.41 1149.73 4206.5 1180 4188.05 1204.23L4203.96 1216.35C4224.99 1188.73 4237.43 1154.21 4237.3 1116.83L4217.3 1116.9ZM4522.34 1512.05L4202.96 1203.1L4189.05 1217.48L4508.43 1526.42L4522.34 1512.05ZM4528.19 1517.57C4528.84 1517.69 4528.89 1517.96 4527.83 1517.13C4526.63 1516.18 4525.09 1514.72 4522.34 1512.05L4508.43 1526.42C4510.89 1528.8 4513.27 1531.12 4515.46 1532.84C4517.79 1534.68 4520.71 1536.51 4524.5 1537.22L4528.19 1517.57ZM4528.49 1517.57C4528.39 1517.58 4528.29 1517.58 4528.19 1517.57L4524.5 1537.22C4527.01 1537.69 4529.58 1537.7 4532.1 1537.24L4528.49 1517.57ZM4534.38 1512.07C4531.61 1514.73 4530.07 1516.19 4528.86 1517.13C4527.8 1517.96 4527.84 1517.69 4528.49 1517.57L4532.1 1537.24C4535.88 1536.55 4538.81 1534.73 4541.15 1532.9C4543.35 1531.19 4545.74 1528.88 4548.21 1526.52L4534.38 1512.07ZM4534.23 1512.22L4534.23 1512.22L4548.37 1526.37L4548.37 1526.37L4534.23 1512.22ZM4573.87 1464.55C4572.82 1469.74 4569.97 1475.13 4563.54 1482.69C4557.02 1490.37 4547.64 1499.37 4534.38 1512.07L4548.21 1526.52C4561.17 1514.11 4571.44 1504.28 4578.79 1495.64C4586.23 1486.87 4591.47 1478.43 4593.48 1468.53L4573.87 1464.55ZM4573.91 1449.47C4574.9 1454.46 4574.88 1459.57 4573.87 1464.55L4593.48 1468.53C4595.01 1460.96 4595.03 1453.17 4593.53 1445.6L4573.91 1449.47ZM4534.66 1401.77C4547.85 1414.53 4557.19 1423.58 4563.67 1431.29C4570.06 1438.88 4572.89 1444.28 4573.91 1449.47L4593.53 1445.6C4591.57 1435.68 4586.38 1427.22 4578.98 1418.41C4571.68 1409.73 4561.45 1399.86 4548.56 1387.39L4534.66 1401.77ZM4249.16 1125.6L4534.66 1401.77L4548.56 1387.39L4263.07 1111.22L4249.16 1125.6ZM4537.02 835.708L4249.2 1111.18L4263.03 1125.63L4550.85 850.156L4537.02 835.708ZM4576.53 788.206C4575.48 793.395 4572.62 798.777 4566.2 806.334C4559.67 814.011 4550.28 823.013 4537.02 835.708L4550.85 850.156C4563.81 837.755 4574.09 827.934 4581.44 819.29C4588.89 810.526 4594.12 802.089 4596.13 792.187L4576.53 788.206ZM4576.57 773.143C4577.56 778.122 4577.54 783.232 4576.53 788.206L4596.13 792.187C4597.67 784.619 4597.69 776.836 4596.19 769.262L4576.57 773.143ZM4537.3 725.46C4550.5 738.217 4559.84 747.262 4566.33 754.969C4572.72 762.556 4575.54 767.951 4576.57 773.144L4596.19 769.262C4594.23 759.35 4589.04 750.887 4581.63 742.089C4574.32 733.41 4564.09 723.541 4551.2 711.079L4537.3 725.46ZM4536.78 724.913L4536.78 724.913L4551.72 711.626L4551.72 711.625L4536.78 724.913ZM4531.44 719.942C4530.79 719.82 4530.75 719.549 4531.8 720.381C4533.01 721.326 4534.54 722.793 4537.3 725.46L4551.2 711.078C4548.74 708.701 4546.36 706.385 4544.17 704.661C4541.83 702.824 4538.91 700.996 4535.13 700.286L4531.44 719.942ZM4531.13 719.941C4531.23 719.923 4531.34 719.923 4531.44 719.942L4535.13 700.286C4532.62 699.814 4530.04 699.808 4527.53 700.268L4531.13 719.941ZM4525.24 725.433C4528.01 722.779 4529.56 721.319 4530.76 720.38C4531.83 719.552 4531.78 719.823 4531.13 719.941L4527.53 700.268C4523.75 700.961 4520.82 702.774 4518.48 704.6C4516.28 706.313 4513.88 708.618 4511.41 710.984L4525.24 725.433ZM4203.87 1033.02L4525.24 725.433L4511.41 710.984L4190.04 1018.57L4203.87 1033.02ZM4163.23 1229.61C4138.85 1249.06 4107.99 1260.72 4074.37 1260.84L4074.44 1280.84C4112.73 1280.71 4147.92 1267.41 4175.7 1245.25L4163.23 1229.61ZM4074.37 1260.84C4039.82 1260.97 4008.1 1248.87 3983.27 1228.62L3970.63 1244.12C3998.92 1267.19 4035.09 1280.98 4074.44 1280.84L4074.37 1260.84ZM3664.22 1549.53L3983.86 1243.59L3970.03 1229.14L3650.39 1535.08L3664.22 1549.53ZM3658.62 1554.84C3658.45 1555.69 3658.07 1555.84 3658.94 1554.81C3659.92 1553.66 3661.44 1552.19 3664.22 1549.53L3650.39 1535.08C3647.92 1537.44 3645.51 1539.74 3643.71 1541.85C3641.81 1544.09 3639.81 1547 3639.02 1550.86L3658.62 1554.84ZM3658.62 1554.71C3658.63 1554.75 3658.63 1554.8 3658.62 1554.84L3639.02 1550.86C3638.5 1553.41 3638.5 1556.04 3639 1558.59L3658.62 1554.71ZM3664.19 1560.05C3661.43 1557.38 3659.91 1555.9 3658.94 1554.75C3658.07 1553.71 3658.45 1553.86 3658.62 1554.71L3639 1558.59C3639.77 1562.46 3641.75 1565.38 3643.64 1567.63C3645.43 1569.75 3647.83 1572.05 3650.29 1574.43L3664.19 1560.05ZM3713.92 1598.19C3708.29 1597.13 3702.58 1594.29 3694.74 1588.12C3686.75 1581.83 3677.38 1572.8 3664.19 1560.05L3650.29 1574.43C3663.19 1586.89 3673.39 1596.78 3682.37 1603.84C3691.5 1611.01 3700.16 1615.95 3710.22 1617.84L3713.92 1598.19ZM3730.02 1598.22C3724.7 1599.2 3719.23 1599.19 3713.92 1598.19L3710.22 1617.84C3717.95 1619.29 3725.89 1619.31 3733.62 1617.9L3730.02 1598.22ZM3779.94 1560.32C3766.68 1573.01 3757.27 1582 3749.25 1588.24C3741.37 1594.38 3735.65 1597.19 3730.02 1598.22L3733.62 1617.9C3743.69 1616.06 3752.38 1611.16 3761.54 1604.02C3770.55 1597 3780.81 1587.17 3793.77 1574.77L3779.94 1560.32ZM4065.79 1286.73L3779.94 1560.32L3793.77 1574.77L4079.62 1301.18L4065.79 1286.73ZM4366.21 1562.49L4079.64 1286.75L4065.77 1301.16L4352.34 1576.9L4366.21 1562.49ZM4366.35 1562.62L4366.35 1562.62L4352.2 1576.77L4352.21 1576.77L4366.35 1562.62ZM4416.02 1600.52C4410.39 1599.48 4404.68 1596.65 4396.82 1590.49C4388.82 1584.23 4379.44 1575.22 4366.21 1562.49L4352.34 1576.9C4365.27 1589.34 4375.5 1599.2 4384.49 1606.24C4393.63 1613.4 4402.31 1618.32 4412.37 1620.18L4416.02 1600.52ZM4432.12 1600.52C4426.8 1601.51 4421.34 1601.51 4416.02 1600.52L4412.37 1620.18C4420.1 1621.62 4428.04 1621.62 4435.77 1620.18L4432.12 1600.52ZM4481.93 1562.49C4468.71 1575.22 4459.32 1584.23 4451.32 1590.49C4443.46 1596.65 4437.75 1599.48 4432.12 1600.52L4435.77 1620.18C4445.83 1618.32 4454.51 1613.4 4463.65 1606.24C4472.64 1599.2 4482.87 1589.34 4495.8 1576.9L4481.93 1562.49ZM4487.51 1557.16C4487.68 1556.31 4488.06 1556.17 4487.19 1557.2C4486.22 1558.35 4484.7 1559.83 4481.93 1562.49L4495.8 1576.9C4498.26 1574.53 4500.67 1572.23 4502.46 1570.11C4504.35 1567.87 4506.35 1564.96 4507.12 1561.09L4487.51 1557.16ZM4487.51 1557.29C4487.5 1557.25 4487.5 1557.2 4487.51 1557.16L4507.12 1561.09C4507.63 1558.54 4507.63 1555.91 4507.12 1553.36L4487.51 1557.29ZM4481.93 1551.96C4484.7 1554.63 4486.22 1556.1 4487.19 1557.25C4488.06 1558.28 4487.68 1558.14 4487.51 1557.29L4507.12 1553.36C4506.35 1549.49 4504.35 1546.58 4502.46 1544.34C4500.67 1542.22 4498.26 1539.92 4495.8 1537.55L4481.93 1551.96ZM4162.53 1244.64L4481.93 1551.96L4495.8 1537.55L4176.4 1230.22L4162.53 1244.64ZM3958.73 1202.97C3941.05 1179.22 3930.54 1149.82 3930.43 1117.92L3910.43 1117.99C3910.56 1154.31 3922.54 1187.85 3942.69 1214.92L3958.73 1202.97ZM3930.43 1117.92C3930.32 1085.92 3940.68 1056.35 3958.3 1032.43L3942.2 1020.57C3922.12 1047.83 3910.3 1081.55 3910.43 1117.99L3930.43 1117.92ZM3623.18 725.671L3943.32 1033.71L3957.18 1019.29L3637.05 711.259L3623.18 725.671ZM3617.31 720.166C3616.66 720.046 3616.61 719.774 3617.67 720.604C3618.88 721.547 3620.42 723.01 3623.18 725.671L3637.05 711.259C3634.58 708.887 3632.2 706.576 3630 704.857C3627.66 703.025 3624.74 701.204 3620.96 700.501L3617.31 720.166ZM3617.01 720.166C3617.1 720.148 3617.21 720.148 3617.31 720.166L3620.96 700.501C3618.44 700.036 3615.87 700.036 3613.36 700.501L3617.01 720.166ZM3611.13 725.671C3613.9 723.01 3615.43 721.547 3616.64 720.604C3617.7 719.774 3617.65 720.046 3617.01 720.166L3613.36 700.501C3609.57 701.204 3606.65 703.025 3604.31 704.857C3602.11 706.576 3599.73 708.887 3597.26 711.259L3611.13 725.671ZM3611.27 725.536L3611.27 725.536L3597.13 711.394L3597.13 711.394L3611.27 725.536ZM3611.57 725.222L3611.57 725.222L3596.83 711.708L3596.83 711.708L3611.57 725.222ZM3611.27 725.536L3611.27 725.536L3597.13 711.394L3597.13 711.394L3611.27 725.536ZM3571.75 773.276C3572.79 768.083 3575.63 762.693 3582.03 755.119C3588.54 747.426 3597.9 738.4 3611.13 725.671L3597.26 711.259C3584.34 723.694 3574.09 733.541 3566.76 742.204C3559.33 750.988 3554.12 759.439 3552.14 769.346L3571.75 773.276ZM3571.75 788.344C3570.75 783.367 3570.75 778.254 3571.75 773.276L3552.14 769.346C3550.62 776.918 3550.62 784.702 3552.14 792.274L3571.75 788.344ZM3611.13 835.95C3597.9 823.221 3588.54 814.195 3582.03 806.502C3575.63 798.928 3572.79 793.538 3571.75 788.344L3552.14 792.274C3554.12 802.182 3559.33 810.633 3566.76 819.416C3574.09 828.08 3584.34 837.927 3597.26 850.362L3611.13 835.95ZM3896.71 1110.74L3611.13 835.95L3597.26 850.362L3882.85 1125.15L3896.71 1110.74ZM3611.79 1399.31L3896.71 1125.15L3882.85 1110.74L3597.92 1384.9L3611.79 1399.31ZM3572.4 1446.92C3573.44 1441.72 3576.28 1436.33 3582.69 1428.76C3589.19 1421.06 3598.56 1412.04 3611.79 1399.31L3597.92 1384.9C3585 1397.33 3574.74 1407.18 3567.42 1415.84C3559.99 1424.63 3554.78 1433.08 3552.79 1442.99L3572.4 1446.92ZM3572.4 1461.98C3571.41 1457.01 3571.41 1451.89 3572.4 1446.92L3552.79 1442.99C3551.28 1450.56 3551.28 1458.34 3552.79 1465.91L3572.4 1461.98ZM3611.79 1509.59C3598.56 1496.86 3589.19 1487.83 3582.69 1480.14C3576.28 1472.57 3573.44 1467.18 3572.4 1461.98L3552.79 1465.91C3554.78 1475.82 3559.99 1484.27 3567.42 1493.06C3574.74 1501.72 3585 1511.57 3597.92 1524L3611.79 1509.59ZM3617.66 1515.09C3618.31 1515.21 3618.35 1515.49 3617.29 1514.66C3616.09 1513.71 3614.55 1512.25 3611.79 1509.59L3597.92 1524C3600.38 1526.37 3602.77 1528.68 3604.96 1530.4C3607.3 1532.24 3610.23 1534.06 3614.01 1534.76L3617.66 1515.09ZM3617.96 1515.09C3617.86 1515.11 3617.76 1515.11 3617.66 1515.09L3614.01 1534.76C3616.52 1535.22 3619.1 1535.22 3621.61 1534.76L3617.96 1515.09ZM3623.84 1509.59C3621.07 1512.25 3619.53 1513.71 3618.33 1514.66C3617.27 1515.49 3617.31 1515.21 3617.96 1515.09L3621.61 1534.76C3625.4 1534.06 3628.32 1532.24 3630.66 1530.4C3632.85 1528.68 3635.24 1526.37 3637.7 1524L3623.84 1509.59ZM3624.33 1509.15L3624.33 1509.15L3637.21 1524.44L3637.21 1524.44L3624.33 1509.15ZM3943.78 1201.74L3623.84 1509.59L3637.7 1524L3957.65 1216.15L3943.78 1201.74Z" fill="white" mask="url(#path-1-outside-1_89_96)"/>
<circle cx="4074.78" cy="1118.54" r="122.633" transform="rotate(-0.203159 4074.78 1118.54)" fill="#102731" stroke="white" stroke-width="10"/>
<path d="M4128.53 1102.81L4056.15 1066.35C4045.89 1061.17 4033.81 1068.39 4034.07 1079.53L4035.88 1158.13C4036.14 1169.61 4049.22 1176.61 4059.23 1170.63L4129.8 1128.5C4139.82 1122.52 4139.11 1108.14 4128.53 1102.81Z" fill="#2B84C7" stroke="white" stroke-width="10"/>
<path d="M4409.52 1019.63H4397.81C4384 1019.63 4372.81 1030.82 4372.81 1044.63V1190.26C4372.81 1204.06 4384 1215.26 4397.81 1215.26H4409.52C4417.8 1215.26 4424.52 1208.54 4424.52 1200.26V1034.63C4424.52 1026.35 4417.8 1019.63 4409.52 1019.63Z" fill="#102731" stroke="white" stroke-width="10"/>
<path d="M4471.04 987.523H4459.33C4445.52 987.523 4434.33 998.716 4434.33 1012.52V1223.37C4434.33 1237.17 4445.52 1248.37 4459.33 1248.37H4471.04C4479.33 1248.37 4486.04 1241.65 4486.04 1233.37V1002.52C4486.04 994.239 4479.33 987.523 4471.04 987.523Z" fill="#102731" stroke="white" stroke-width="10"/>
<path d="M4534.65 937.354H4522.94C4509.13 937.354 4497.94 948.547 4497.94 962.354V1273.54C4497.94 1287.34 4509.13 1298.54 4522.94 1298.54H4534.65C4542.94 1298.54 4549.65 1291.82 4549.65 1283.54V952.354C4549.65 944.07 4542.94 937.354 4534.65 937.354Z" fill="#102731" stroke="white" stroke-width="10"/>
<path d="M3735.64 1216.03L3747.35 1216.11C3761.15 1216.22 3772.44 1205.11 3772.55 1191.3L3773.72 1045.68C3773.83 1031.87 3762.73 1020.6 3748.92 1020.49L3737.21 1020.41C3728.93 1020.35 3722.16 1027.01 3722.09 1035.3L3720.76 1200.92C3720.69 1209.2 3727.35 1215.96 3735.64 1216.03Z" fill="#102731" stroke="white" stroke-width="10"/>
<path d="M3673.86 1247.68L3685.57 1247.76C3699.37 1247.87 3710.66 1236.76 3710.77 1222.95L3712.46 1012.11C3712.57 998.305 3701.47 987.03 3687.66 986.927L3675.95 986.84C3667.67 986.778 3660.9 993.444 3660.83 1001.73L3658.98 1232.56C3658.91 1240.85 3665.57 1247.61 3673.86 1247.68Z" fill="#102731" stroke="white" stroke-width="10"/>
<path d="M3609.84 1297.37L3621.56 1297.46C3635.36 1297.56 3646.65 1286.45 3646.76 1272.65L3649.26 961.473C3649.37 947.666 3638.27 936.39 3624.46 936.287L3612.75 936.2C3604.46 936.139 3597.69 942.804 3597.63 951.088L3594.97 1282.26C3594.9 1290.54 3601.56 1297.31 3609.84 1297.37Z" fill="#102731" stroke="white" stroke-width="10"/>
<mask id="path-11-outside-2_89_96" maskUnits="userSpaceOnUse" x="100" y="285" width="3308" height="1352" fill="black">
<rect fill="white" x="100" y="285" width="3308" height="1352"/>
<path d="M531.2 1627C400 1627 297.067 1604.6 222.4 1559.8C147.733 1515 110.4 1453.67 110.4 1375.8C110.4 1338.47 125.867 1309.13 156.8 1287.8C188.8 1266.47 233.6 1255.27 291.2 1254.2C297.6 1317.13 321.6 1365.67 363.2 1399.8C405.867 1433.93 462.933 1451 534.4 1451C665.6 1451 731.2 1402.47 731.2 1305.4C731.2 1267 713.067 1235.53 676.8 1211C641.6 1186.47 579.733 1161.4 491.2 1135.8C365.333 1100.6 273.067 1055.8 214.4 1001.4C155.733 945.933 126.4 875 126.4 788.6C126.4 691.533 163.733 615.267 238.4 559.8C314.133 503.267 417.067 475 547.2 475C651.733 475 741.333 500.067 816 550.2C890.667 599.267 941.867 668.067 969.6 756.6C951.467 774.733 926.4 790.733 894.4 804.6C862.4 818.467 834.133 825.4 809.6 825.4C790.4 825.4 775.467 821.667 764.8 814.2C754.133 805.667 742.933 790.2 731.2 767.8C709.867 726.2 685.333 696.333 657.6 678.2C629.867 660.067 593.067 651 547.2 651C433.067 651 376 688.867 376 764.6C376 794.467 381.867 819 393.6 838.2C405.333 856.333 425.6 873.4 454.4 889.4C483.2 904.333 526.933 921.4 585.6 940.6C692.267 975.8 773.867 1008.33 830.4 1038.2C886.933 1067 926.4 1098.47 948.8 1132.6C972.267 1166.73 984 1208.87 984 1259C984 1331.53 964.8 1395.53 926.4 1451C889.067 1506.47 836.267 1549.67 768 1580.6C699.733 1611.53 620.8 1627 531.2 1627ZM1906.56 1113.4C1906.56 1128.33 1903.9 1161.93 1898.56 1214.2H1332.16C1337.5 1295.27 1356.7 1358.2 1389.76 1403C1423.9 1447.8 1468.16 1470.2 1522.56 1470.2C1547.1 1470.2 1567.36 1467 1583.36 1460.6C1600.43 1454.2 1617.5 1443 1634.56 1427C1652.7 1409.93 1676.16 1382.73 1704.96 1345.4C1710.3 1336.87 1721.5 1332.6 1738.56 1332.6C1756.7 1332.6 1778.56 1339 1804.16 1351.8C1830.83 1363.53 1859.1 1380.6 1888.96 1403C1819.63 1552.33 1697.5 1627 1522.56 1627C1388.16 1627 1282.56 1586.47 1205.76 1505.4C1128.96 1423.27 1090.56 1311.27 1090.56 1169.4C1090.56 1076.6 1107.63 996.067 1141.76 927.8C1176.96 859.533 1226.56 807.267 1290.56 771C1355.63 733.667 1432.43 715 1520.96 715C1643.63 715 1738.56 749.667 1805.76 819C1872.96 888.333 1906.56 986.467 1906.56 1113.4ZM1666.56 1079.8C1666.56 936.867 1616.43 865.4 1516.16 865.4C1464.96 865.4 1423.9 883.533 1392.96 919.8C1362.03 956.067 1342.83 1009.4 1335.36 1079.8H1666.56ZM2549.89 1455.8C2561.62 1459 2570.69 1465.93 2577.09 1476.6C2583.49 1487.27 2586.69 1500.07 2586.69 1515C2586.69 1537.4 2579.75 1555.53 2565.89 1569.4C2548.82 1586.47 2520.55 1600.33 2481.09 1611C2442.69 1621.67 2400.02 1627 2353.09 1627C2279.49 1627 2220.29 1606.73 2175.49 1566.2C2130.69 1524.6 2108.29 1469.67 2108.29 1401.4V881.4H1973.89V731H2108.29V491H2345.09V731H2511.49V881.4H2345.09V1380.6C2345.09 1417.93 2350.95 1444.6 2362.69 1460.6C2375.49 1475.53 2397.35 1483 2428.29 1483C2462.42 1483 2502.95 1473.93 2549.89 1455.8ZM2699.13 345.4H2935.93V1611H2699.13V345.4ZM3143.25 731H3380.05V1611H3143.25V731ZM3250.45 569.4C3167.25 569.4 3125.65 527.8 3125.65 444.6V420.6C3125.65 337.4 3167.25 295.8 3250.45 295.8H3272.85C3356.05 295.8 3397.65 337.4 3397.65 420.6V444.6C3397.65 527.8 3356.05 569.4 3272.85 569.4H3250.45Z"/>
</mask>
<path d="M531.2 1627C400 1627 297.067 1604.6 222.4 1559.8C147.733 1515 110.4 1453.67 110.4 1375.8C110.4 1338.47 125.867 1309.13 156.8 1287.8C188.8 1266.47 233.6 1255.27 291.2 1254.2C297.6 1317.13 321.6 1365.67 363.2 1399.8C405.867 1433.93 462.933 1451 534.4 1451C665.6 1451 731.2 1402.47 731.2 1305.4C731.2 1267 713.067 1235.53 676.8 1211C641.6 1186.47 579.733 1161.4 491.2 1135.8C365.333 1100.6 273.067 1055.8 214.4 1001.4C155.733 945.933 126.4 875 126.4 788.6C126.4 691.533 163.733 615.267 238.4 559.8C314.133 503.267 417.067 475 547.2 475C651.733 475 741.333 500.067 816 550.2C890.667 599.267 941.867 668.067 969.6 756.6C951.467 774.733 926.4 790.733 894.4 804.6C862.4 818.467 834.133 825.4 809.6 825.4C790.4 825.4 775.467 821.667 764.8 814.2C754.133 805.667 742.933 790.2 731.2 767.8C709.867 726.2 685.333 696.333 657.6 678.2C629.867 660.067 593.067 651 547.2 651C433.067 651 376 688.867 376 764.6C376 794.467 381.867 819 393.6 838.2C405.333 856.333 425.6 873.4 454.4 889.4C483.2 904.333 526.933 921.4 585.6 940.6C692.267 975.8 773.867 1008.33 830.4 1038.2C886.933 1067 926.4 1098.47 948.8 1132.6C972.267 1166.73 984 1208.87 984 1259C984 1331.53 964.8 1395.53 926.4 1451C889.067 1506.47 836.267 1549.67 768 1580.6C699.733 1611.53 620.8 1627 531.2 1627ZM1906.56 1113.4C1906.56 1128.33 1903.9 1161.93 1898.56 1214.2H1332.16C1337.5 1295.27 1356.7 1358.2 1389.76 1403C1423.9 1447.8 1468.16 1470.2 1522.56 1470.2C1547.1 1470.2 1567.36 1467 1583.36 1460.6C1600.43 1454.2 1617.5 1443 1634.56 1427C1652.7 1409.93 1676.16 1382.73 1704.96 1345.4C1710.3 1336.87 1721.5 1332.6 1738.56 1332.6C1756.7 1332.6 1778.56 1339 1804.16 1351.8C1830.83 1363.53 1859.1 1380.6 1888.96 1403C1819.63 1552.33 1697.5 1627 1522.56 1627C1388.16 1627 1282.56 1586.47 1205.76 1505.4C1128.96 1423.27 1090.56 1311.27 1090.56 1169.4C1090.56 1076.6 1107.63 996.067 1141.76 927.8C1176.96 859.533 1226.56 807.267 1290.56 771C1355.63 733.667 1432.43 715 1520.96 715C1643.63 715 1738.56 749.667 1805.76 819C1872.96 888.333 1906.56 986.467 1906.56 1113.4ZM1666.56 1079.8C1666.56 936.867 1616.43 865.4 1516.16 865.4C1464.96 865.4 1423.9 883.533 1392.96 919.8C1362.03 956.067 1342.83 1009.4 1335.36 1079.8H1666.56ZM2549.89 1455.8C2561.62 1459 2570.69 1465.93 2577.09 1476.6C2583.49 1487.27 2586.69 1500.07 2586.69 1515C2586.69 1537.4 2579.75 1555.53 2565.89 1569.4C2548.82 1586.47 2520.55 1600.33 2481.09 1611C2442.69 1621.67 2400.02 1627 2353.09 1627C2279.49 1627 2220.29 1606.73 2175.49 1566.2C2130.69 1524.6 2108.29 1469.67 2108.29 1401.4V881.4H1973.89V731H2108.29V491H2345.09V731H2511.49V881.4H2345.09V1380.6C2345.09 1417.93 2350.95 1444.6 2362.69 1460.6C2375.49 1475.53 2397.35 1483 2428.29 1483C2462.42 1483 2502.95 1473.93 2549.89 1455.8ZM2699.13 345.4H2935.93V1611H2699.13V345.4ZM3143.25 731H3380.05V1611H3143.25V731ZM3250.45 569.4C3167.25 569.4 3125.65 527.8 3125.65 444.6V420.6C3125.65 337.4 3167.25 295.8 3250.45 295.8H3272.85C3356.05 295.8 3397.65 337.4 3397.65 420.6V444.6C3397.65 527.8 3356.05 569.4 3272.85 569.4H3250.45Z" fill="#102731"/>
<path d="M222.4 1559.8L227.545 1551.23L227.545 1551.23L222.4 1559.8ZM156.8 1287.8L151.253 1279.48L151.187 1279.52L151.123 1279.57L156.8 1287.8ZM291.2 1254.2L301.149 1253.19L300.217 1244.03L291.015 1244.2L291.2 1254.2ZM363.2 1399.8L356.857 1407.53L356.905 1407.57L356.953 1407.61L363.2 1399.8ZM676.8 1211L671.082 1219.2L671.139 1219.24L671.197 1219.28L676.8 1211ZM491.2 1135.8L493.978 1126.19L493.936 1126.18L493.893 1126.17L491.2 1135.8ZM214.4 1001.4L207.53 1008.67L207.565 1008.7L207.601 1008.73L214.4 1001.4ZM238.4 559.8L244.363 567.827L244.373 567.82L244.382 567.814L238.4 559.8ZM816 550.2L810.426 558.502L810.467 558.53L810.508 558.557L816 550.2ZM969.6 756.6L976.671 763.671L980.953 759.389L979.143 753.611L969.6 756.6ZM894.4 804.6L898.376 813.776L898.376 813.776L894.4 804.6ZM764.8 814.2L758.553 822.009L758.803 822.209L759.065 822.392L764.8 814.2ZM731.2 767.8L722.302 772.363L722.322 772.402L722.342 772.44L731.2 767.8ZM657.6 678.2L652.128 686.57L652.128 686.57L657.6 678.2ZM393.6 838.2L385.067 843.414L385.134 843.524L385.204 843.632L393.6 838.2ZM454.4 889.4L449.544 898.142L449.669 898.211L449.797 898.277L454.4 889.4ZM585.6 940.6L588.734 931.104L588.722 931.1L588.71 931.096L585.6 940.6ZM830.4 1038.2L825.729 1047.04L825.795 1047.08L825.861 1047.11L830.4 1038.2ZM948.8 1132.6L940.44 1138.09L940.499 1138.18L940.56 1138.27L948.8 1132.6ZM926.4 1451L918.178 1445.31L918.141 1445.36L918.104 1445.42L926.4 1451ZM768 1580.6L763.873 1571.49L763.873 1571.49L768 1580.6ZM531.2 1617C400.961 1617 300.061 1594.73 227.545 1551.23L217.255 1568.37C294.072 1614.47 399.039 1637 531.2 1637V1617ZM227.545 1551.23C155.464 1507.98 120.4 1449.68 120.4 1375.8H100.4C100.4 1457.65 140.003 1522.02 217.255 1568.37L227.545 1551.23ZM120.4 1375.8C120.4 1341.78 134.229 1315.51 162.477 1296.03L151.123 1279.57C117.504 1302.75 100.4 1335.15 100.4 1375.8H120.4ZM162.347 1296.12C192.151 1276.25 234.806 1265.25 291.385 1264.2L291.015 1244.2C232.394 1245.29 185.449 1256.68 151.253 1279.48L162.347 1296.12ZM281.251 1255.21C287.868 1320.28 312.859 1371.43 356.857 1407.53L369.543 1392.07C330.341 1359.9 307.332 1313.99 301.149 1253.19L281.251 1255.21ZM356.953 1407.61C401.874 1443.55 461.367 1461 534.4 1461V1441C464.499 1441 409.859 1424.32 369.447 1391.99L356.953 1407.61ZM534.4 1461C600.941 1461 652.662 1448.74 687.948 1422.64C723.797 1396.12 741.2 1356.42 741.2 1305.4H721.2C721.2 1351.44 705.803 1384.55 676.052 1406.56C645.738 1428.99 599.06 1441 534.4 1441V1461ZM741.2 1305.4C741.2 1263.17 720.97 1228.81 682.403 1202.72L671.197 1219.28C705.163 1242.26 721.2 1270.83 721.2 1305.4H741.2ZM682.518 1202.8C645.876 1177.26 582.639 1151.83 493.978 1126.19L488.422 1145.41C576.828 1170.97 637.324 1195.68 671.082 1219.2L682.518 1202.8ZM493.893 1126.17C368.698 1091.16 278.185 1046.91 221.199 994.067L207.601 1008.73C267.948 1064.69 361.968 1110.04 488.507 1145.43L493.893 1126.17ZM221.27 994.134C164.753 940.699 136.4 872.466 136.4 788.6H116.4C116.4 877.534 146.714 951.168 207.53 1008.67L221.27 994.134ZM136.4 788.6C136.4 694.535 172.363 621.313 244.363 567.827L232.437 551.773C155.103 609.22 116.4 688.531 116.4 788.6H136.4ZM244.382 567.814C317.842 512.977 418.425 485 547.2 485V465C415.708 465 310.424 493.556 232.418 551.786L244.382 567.814ZM547.2 485C650.078 485 737.662 509.646 810.426 558.502L821.574 541.898C745.005 490.487 653.388 465 547.2 465V485ZM810.508 558.557C883.167 606.304 932.985 673.167 960.057 759.589L979.143 753.611C950.748 662.966 898.167 592.229 821.492 541.843L810.508 558.557ZM962.529 749.529C945.543 766.515 921.658 781.89 890.424 795.424L898.376 813.776C931.142 799.577 957.39 782.952 976.671 763.671L962.529 749.529ZM890.424 795.424C859.189 808.96 832.317 815.4 809.6 815.4V835.4C835.95 835.4 865.611 827.974 898.376 813.776L890.424 795.424ZM809.6 815.4C791.527 815.4 778.896 811.86 770.535 806.008L759.065 822.392C772.038 831.473 789.273 835.4 809.6 835.4V815.4ZM771.047 806.391C762.026 799.175 751.604 785.201 740.058 763.16L722.342 772.44C734.263 795.199 746.24 812.158 758.553 822.009L771.047 806.391ZM740.098 763.237C718.281 720.693 692.735 689.225 663.073 669.83L652.128 686.57C677.932 703.442 701.453 731.707 722.302 772.363L740.098 763.237ZM663.073 669.83C633.199 650.297 594.29 641 547.2 641V661C591.844 661 626.535 669.836 652.128 686.57L663.073 669.83ZM547.2 641C489.344 641 444.207 650.54 413.271 671.067C381.614 692.073 366 723.8 366 764.6H386C386 729.666 398.919 704.593 424.329 687.732C450.46 670.393 490.923 661 547.2 661V641ZM366 764.6C366 795.72 372.109 822.21 385.067 843.414L402.133 832.985C391.625 815.79 386 793.213 386 764.6H366ZM385.204 843.632C398.175 863.679 419.998 881.728 449.544 898.142L459.256 880.658C431.202 865.072 412.491 848.988 401.996 832.767L385.204 843.632ZM449.797 898.277C479.33 913.591 523.68 930.857 582.49 950.104L588.71 931.096C530.187 911.943 487.07 895.076 459.003 880.522L449.797 898.277ZM582.466 950.096C688.936 985.231 769.924 1017.56 825.729 1047.04L835.071 1029.36C777.81 999.107 695.598 966.369 588.734 931.104L582.466 950.096ZM825.861 1047.11C881.627 1075.52 919.382 1106 940.44 1138.09L957.161 1127.11C933.418 1090.93 892.239 1058.48 834.939 1029.29L825.861 1047.11ZM940.56 1138.27C962.658 1170.41 974 1210.46 974 1259H994C994 1207.28 981.876 1163.06 957.041 1126.93L940.56 1138.27ZM974 1259C974 1329.66 955.332 1391.64 918.178 1445.31L934.622 1456.69C974.268 1399.43 994 1333.41 994 1259H974ZM918.104 1445.42C881.928 1499.16 830.66 1541.23 763.873 1571.49L772.127 1589.71C841.873 1558.1 896.205 1513.77 934.696 1456.58L918.104 1445.42ZM763.873 1571.49C697.131 1601.73 619.65 1617 531.2 1617V1637C621.95 1637 702.336 1621.33 772.127 1589.71L763.873 1571.49ZM1898.56 1214.2V1224.2H1907.59L1908.51 1215.22L1898.56 1214.2ZM1332.16 1214.2V1204.2H1321.48L1322.18 1214.86L1332.16 1214.2ZM1389.76 1403L1381.72 1408.94L1381.76 1409L1381.81 1409.06L1389.76 1403ZM1583.36 1460.6L1579.85 1451.24L1579.75 1451.27L1579.65 1451.32L1583.36 1460.6ZM1634.56 1427L1641.4 1434.3L1641.41 1434.29L1641.42 1434.28L1634.56 1427ZM1704.96 1345.4L1712.88 1351.51L1713.18 1351.12L1713.44 1350.7L1704.96 1345.4ZM1804.16 1351.8L1799.69 1360.74L1799.91 1360.85L1800.14 1360.95L1804.16 1351.8ZM1888.96 1403L1898.03 1407.21L1901.44 1399.86L1894.96 1395L1888.96 1403ZM1205.76 1505.4L1198.46 1512.23L1198.48 1512.25L1198.5 1512.28L1205.76 1505.4ZM1141.76 927.8L1132.87 923.217L1132.85 923.272L1132.82 923.328L1141.76 927.8ZM1290.56 771L1295.49 779.7L1295.52 779.687L1295.54 779.674L1290.56 771ZM1805.76 819L1812.94 812.04L1812.94 812.04L1805.76 819ZM1666.56 1079.8V1089.8H1676.56V1079.8H1666.56ZM1392.96 919.8L1400.57 926.289L1400.57 926.289L1392.96 919.8ZM1335.36 1079.8L1325.42 1078.75L1324.25 1089.8H1335.36V1079.8ZM1896.56 1113.4C1896.56 1127.72 1893.96 1160.77 1888.61 1213.18L1908.51 1215.22C1913.83 1163.09 1916.56 1128.95 1916.56 1113.4H1896.56ZM1898.56 1204.2H1332.16V1224.2H1898.56V1204.2ZM1322.18 1214.86C1327.59 1297 1347.11 1362.05 1381.72 1408.94L1397.81 1397.06C1366.29 1354.35 1347.4 1293.53 1342.14 1213.54L1322.18 1214.86ZM1381.81 1409.06C1417.75 1456.24 1464.91 1480.2 1522.56 1480.2V1460.2C1471.41 1460.2 1430.04 1439.36 1397.72 1396.94L1381.81 1409.06ZM1522.56 1480.2C1547.87 1480.2 1569.51 1476.91 1587.08 1469.88L1579.65 1451.32C1565.22 1457.09 1546.32 1460.2 1522.56 1460.2V1480.2ZM1586.87 1469.96C1605.47 1462.99 1623.63 1450.95 1641.4 1434.3L1627.72 1419.7C1611.36 1435.05 1595.39 1445.41 1579.85 1451.24L1586.87 1469.96ZM1641.42 1434.28C1660.14 1416.66 1683.99 1388.96 1712.88 1351.51L1697.04 1339.29C1668.34 1376.51 1645.25 1403.2 1627.71 1419.72L1641.42 1434.28ZM1713.44 1350.7C1715.95 1346.69 1722.51 1342.6 1738.56 1342.6V1322.6C1720.48 1322.6 1704.64 1327.05 1696.48 1340.1L1713.44 1350.7ZM1738.56 1342.6C1754.5 1342.6 1774.76 1348.28 1799.69 1360.74L1808.63 1342.86C1782.37 1329.72 1758.89 1322.6 1738.56 1322.6V1342.6ZM1800.14 1360.95C1825.94 1372.31 1853.55 1388.94 1882.96 1411L1894.96 1395C1864.65 1372.26 1835.72 1354.76 1808.19 1342.65L1800.14 1360.95ZM1879.89 1398.79C1845.93 1471.94 1799.29 1526.31 1740.15 1562.47C1680.97 1598.65 1608.6 1617 1522.56 1617V1637C1611.46 1637 1687.63 1618.02 1750.58 1579.53C1813.57 1541.02 1862.66 1483.39 1898.03 1407.21L1879.89 1398.79ZM1522.56 1617C1390.31 1617 1287.56 1577.2 1213.02 1498.52L1198.5 1512.28C1277.57 1595.74 1386.02 1637 1522.56 1637V1617ZM1213.07 1498.57C1138.42 1418.74 1100.56 1309.42 1100.56 1169.4H1080.56C1080.56 1313.11 1119.51 1427.79 1198.46 1512.23L1213.07 1498.57ZM1100.56 1169.4C1100.56 1077.82 1117.4 998.882 1150.71 932.272L1132.82 923.328C1097.86 993.251 1080.56 1075.38 1080.56 1169.4H1100.56ZM1150.65 932.383C1185 865.764 1233.26 814.965 1295.49 779.7L1285.63 762.3C1219.86 799.569 1168.92 853.303 1132.87 923.217L1150.65 932.383ZM1295.54 779.674C1358.84 743.354 1433.86 725 1520.96 725V705C1431 705 1352.42 723.979 1285.59 762.326L1295.54 779.674ZM1520.96 725C1641.7 725 1733.74 759.062 1798.58 825.96L1812.94 812.04C1743.38 740.271 1645.56 705 1520.96 705V725ZM1798.58 825.96C1863.46 892.898 1896.56 988.22 1896.56 1113.4H1916.56C1916.56 984.713 1882.46 883.769 1812.94 812.04L1798.58 825.96ZM1676.56 1079.8C1676.56 1007.47 1663.93 951.439 1637.15 913.257C1609.91 874.428 1569 855.4 1516.16 855.4V875.4C1563.59 875.4 1597.88 892.105 1620.78 924.743C1644.13 958.028 1656.56 1009.2 1656.56 1079.8H1676.56ZM1516.16 855.4C1462.28 855.4 1418.34 874.635 1385.35 913.311L1400.57 926.289C1429.45 892.431 1467.64 875.4 1516.16 875.4V855.4ZM1385.35 913.311C1352.62 951.69 1333 1007.26 1325.42 1078.75L1345.31 1080.85C1352.66 1011.54 1371.44 960.443 1400.57 926.289L1385.35 913.311ZM1335.36 1089.8H1666.56V1069.8H1335.36V1089.8ZM2549.89 1455.8L2552.52 1446.15L2549.35 1445.29L2546.28 1446.47L2549.89 1455.8ZM2577.09 1476.6L2585.66 1471.46L2585.66 1471.46L2577.09 1476.6ZM2565.89 1569.4L2572.96 1576.47L2572.96 1576.47L2565.89 1569.4ZM2481.09 1611L2478.48 1601.35L2478.44 1601.36L2478.41 1601.36L2481.09 1611ZM2175.49 1566.2L2168.68 1573.53L2168.73 1573.57L2168.78 1573.62L2175.49 1566.2ZM2108.29 881.4H2118.29V871.4H2108.29V881.4ZM1973.89 881.4H1963.89V891.4H1973.89V881.4ZM1973.89 731V721H1963.89V731H1973.89ZM2108.29 731V741H2118.29V731H2108.29ZM2108.29 491V481H2098.29V491H2108.29ZM2345.09 491H2355.09V481H2345.09V491ZM2345.09 731H2335.09V741H2345.09V731ZM2511.49 731H2521.49V721H2511.49V731ZM2511.49 881.4V891.4H2521.49V881.4H2511.49ZM2345.09 881.4V871.4H2335.09V881.4H2345.09ZM2362.69 1460.6L2354.62 1466.51L2354.85 1466.82L2355.09 1467.11L2362.69 1460.6ZM2547.26 1465.45C2556.44 1467.95 2563.41 1473.23 2568.51 1481.74L2585.66 1471.46C2577.97 1458.63 2566.8 1450.05 2552.52 1446.15L2547.26 1465.45ZM2568.51 1481.74C2573.81 1490.57 2576.69 1501.51 2576.69 1515H2596.69C2596.69 1498.62 2593.17 1483.96 2585.66 1471.46L2568.51 1481.74ZM2576.69 1515C2576.69 1535.16 2570.54 1550.61 2558.82 1562.33L2572.96 1576.47C2588.97 1560.46 2596.69 1539.64 2596.69 1515H2576.69ZM2558.82 1562.33C2543.57 1577.58 2517.29 1590.86 2478.48 1601.35L2483.7 1620.65C2523.82 1609.81 2554.07 1595.36 2572.96 1576.47L2558.82 1562.33ZM2478.41 1601.36C2441.02 1611.75 2399.27 1617 2353.09 1617V1637C2400.77 1637 2444.35 1631.58 2483.76 1620.64L2478.41 1601.36ZM2353.09 1617C2281.4 1617 2224.78 1597.31 2182.2 1558.78L2168.78 1573.62C2215.8 1616.16 2277.58 1637 2353.09 1637V1617ZM2182.29 1558.87C2139.78 1519.4 2118.29 1467.25 2118.29 1401.4H2098.29C2098.29 1472.09 2121.6 1529.8 2168.68 1573.53L2182.29 1558.87ZM2118.29 1401.4V881.4H2098.29V1401.4H2118.29ZM2108.29 871.4H1973.89V891.4H2108.29V871.4ZM1983.89 881.4V731H1963.89V881.4H1983.89ZM1973.89 741H2108.29V721H1973.89V741ZM2118.29 731V491H2098.29V731H2118.29ZM2108.29 501H2345.09V481H2108.29V501ZM2335.09 491V731H2355.09V491H2335.09ZM2345.09 741H2511.49V721H2345.09V741ZM2501.49 731V881.4H2521.49V731H2501.49ZM2511.49 871.4H2345.09V891.4H2511.49V871.4ZM2335.09 881.4V1380.6H2355.09V881.4H2335.09ZM2335.09 1380.6C2335.09 1418.45 2340.93 1447.84 2354.62 1466.51L2370.75 1454.69C2360.98 1441.36 2355.09 1417.42 2355.09 1380.6H2335.09ZM2355.09 1467.11C2370.66 1485.27 2396.1 1493 2428.29 1493V1473C2398.61 1473 2380.32 1465.8 2370.28 1454.09L2355.09 1467.11ZM2428.29 1493C2464.09 1493 2505.9 1483.51 2553.49 1465.13L2546.28 1446.47C2500 1464.35 2460.75 1473 2428.29 1473V1493ZM2699.13 345.4V335.4H2689.13V345.4H2699.13ZM2935.93 345.4H2945.93V335.4H2935.93V345.4ZM2935.93 1611V1621H2945.93V1611H2935.93ZM2699.13 1611H2689.13V1621H2699.13V1611ZM2699.13 355.4H2935.93V335.4H2699.13V355.4ZM2925.93 345.4V1611H2945.93V345.4H2925.93ZM2935.93 1601H2699.13V1621H2935.93V1601ZM2709.13 1611V345.4H2689.13V1611H2709.13ZM3143.25 731V721H3133.25V731H3143.25ZM3380.05 731H3390.05V721H3380.05V731ZM3380.05 1611V1621H3390.05V1611H3380.05ZM3143.25 1611H3133.25V1621H3143.25V1611ZM3143.25 741H3380.05V721H3143.25V741ZM3370.05 731V1611H3390.05V731H3370.05ZM3380.05 1601H3143.25V1621H3380.05V1601ZM3153.25 1611V731H3133.25V1611H3153.25ZM3250.45 559.4C3210.39 559.4 3182.18 549.392 3163.92 531.129C3145.66 512.866 3135.65 484.659 3135.65 444.6H3115.65C3115.65 487.741 3126.44 521.934 3149.78 545.271C3173.12 568.608 3207.31 579.4 3250.45 579.4V559.4ZM3135.65 444.6V420.6H3115.65V444.6H3135.65ZM3135.65 420.6C3135.65 380.541 3145.66 352.334 3163.92 334.071C3182.18 315.808 3210.39 305.8 3250.45 305.8V285.8C3207.31 285.8 3173.12 296.592 3149.78 319.929C3126.44 343.266 3115.65 377.459 3115.65 420.6H3135.65ZM3250.45 305.8H3272.85V285.8H3250.45V305.8ZM3272.85 305.8C3312.91 305.8 3341.12 315.808 3359.38 334.071C3377.64 352.334 3387.65 380.541 3387.65 420.6H3407.65C3407.65 377.459 3396.86 343.266 3373.52 319.929C3350.18 296.592 3315.99 285.8 3272.85 285.8V305.8ZM3387.65 420.6V444.6H3407.65V420.6H3387.65ZM3387.65 444.6C3387.65 484.659 3377.64 512.866 3359.38 531.129C3341.12 549.392 3312.91 559.4 3272.85 559.4V579.4C3315.99 579.4 3350.18 568.608 3373.52 545.271C3396.86 521.934 3407.65 487.741 3407.65 444.6H3387.65ZM3272.85 559.4H3250.45V579.4H3272.85V559.4Z" fill="white" mask="url(#path-11-outside-2_89_96)"/>
</svg>
