<?xml version="1.0" encoding="iso-8859-1"?>
<!-- Uploaded to: SVG Repo, www.svgrepo.com, Generator: SVG Repo Mixer Tools -->
<svg fill="currentColor" height="800px" width="800px" version="1.1" id="Layer_1" xmlns="http://www.w3.org/2000/svg" xmlns:xlink="http://www.w3.org/1999/xlink"
	 viewBox="0 0 511.999 511.999" xml:space="preserve">
<g>
	<g>
		<path d="M503.729,181.673L330.323,8.268C324.992,2.937,317.902,0,310.362,0c-7.54,0-14.629,2.937-19.961,8.268
			c-5.331,5.332-8.266,12.421-8.266,19.961c0,3.323,0.572,6.557,1.666,9.593L150.168,171.455c-3.036-1.094-6.27-1.667-9.593-1.667
			c-7.54,0-14.63,2.937-19.962,8.268c-5.331,5.332-8.267,12.421-8.267,19.961c0,7.541,2.936,14.63,8.267,19.961L173.636,271
			L13.952,430.685c-8.996,8.995-13.95,20.954-13.95,33.675c0,12.721,4.954,24.681,13.949,33.677
			c9.003,9.003,20.965,13.962,33.685,13.962c12.719,0,24.677-4.956,33.678-13.954l159.683-159.683l53.021,53.021
			c5.332,5.332,12.421,8.268,19.962,8.268c7.54,0,14.629-2.937,19.961-8.268c5.331-5.332,8.267-12.421,8.267-19.961
			c0-3.323-0.572-6.557-1.666-9.593l133.67-133.671c3.085,1.106,6.316,1.69,9.557,1.69c7.229,0,14.458-2.751,19.961-8.254
			c0,0,0,0,0.001,0c5.331-5.332,8.267-12.421,8.267-19.961C511.995,194.093,509.059,187.004,503.729,181.673z M68.838,485.569
			c-5.666,5.666-13.196,8.786-21.201,8.786s-15.538-3.123-21.207-8.795c-5.664-5.662-8.783-13.193-8.783-21.2
			s3.118-15.537,8.783-21.2l159.683-159.685l42.409,42.409L68.838,485.569z M321.463,378.906c-4.127,4.129-10.844,4.126-14.969,0
			L133.089,205.502c-4.127-4.127-4.127-10.842,0-14.97c2.063-2.063,4.774-3.096,7.484-3.096c2.708,0,5.417,1.03,7.478,3.09
			l173.411,173.41C325.589,368.064,325.589,374.779,321.463,378.906z M329.948,347.469L164.526,182.047L294.393,52.18
			l165.422,165.422L329.948,347.469z M491.253,209.118c-4.127,4.129-10.842,4.127-14.97,0L302.879,35.713
			c-4.127-4.127-4.127-10.842,0-14.97c2.063-2.063,4.774-3.095,7.483-3.095c2.711,0,5.421,1.032,7.484,3.095l173.405,173.405
			C495.379,198.275,495.379,204.991,491.253,209.118z"/>
	</g>
</g>
<g>
	<g>
		<circle cx="205.239" cy="194.407" r="8.79"/>
	</g>
</g>
<g>
	<g>
		<circle cx="225.54" cy="174.105" r="8.79"/>
	</g>
</g>
<g>
	<g>
		<circle cx="245.83" cy="153.815" r="8.79"/>
	</g>
</g>
<g>
	<g>
		<circle cx="266.132" cy="133.525" r="8.79"/>
	</g>
</g>
<g>
	<g>
		<circle cx="306.724" cy="92.934" r="8.79"/>
	</g>
</g>
<g>
	<g>
		<circle cx="286.422" cy="113.224" r="8.79"/>
	</g>
</g>
<g>
	<g>
		<circle cx="317.568" cy="306.737" r="8.79"/>
	</g>
</g>
<g>
	<g>
		<circle cx="337.87" cy="286.447" r="8.79"/>
	</g>
</g>
<g>
	<g>
		<circle cx="358.16" cy="266.145" r="8.79"/>
	</g>
</g>
<g>
	<g>
		<circle cx="378.462" cy="245.855" r="8.79"/>
	</g>
</g>
<g>
	<g>
		<circle cx="419.053" cy="205.263" r="8.79"/>
	</g>
</g>
<g>
	<g>
		<circle cx="398.763" cy="225.565" r="8.79"/>
	</g>
</g>
<g>
	<g>
		<circle cx="280.129" cy="269.285" r="8.79"/>
	</g>
</g>
<g>
	<g>
		<circle cx="300.419" cy="248.996" r="8.79"/>
	</g>
</g>
<g>
	<g>
		<circle cx="320.721" cy="228.706" r="8.79"/>
	</g>
</g>
<g>
	<g>
		<circle cx="341.022" cy="208.416" r="8.79"/>
	</g>
</g>
<g>
	<g>
		<circle cx="381.614" cy="167.824" r="8.79"/>
	</g>
</g>
<g>
	<g>
		<circle cx="361.312" cy="188.114" r="8.79"/>
	</g>
</g>
<g>
	<g>
		<circle cx="242.678" cy="231.846" r="8.79"/>
	</g>
</g>
<g>
	<g>
		<circle cx="262.98" cy="211.556" r="8.79"/>
	</g>
</g>
<g>
	<g>
		<circle cx="283.281" cy="191.255" r="8.79"/>
	</g>
</g>
<g>
	<g>
		<circle cx="303.571" cy="170.965" r="8.79"/>
	</g>
</g>
<g>
	<g>
		<circle cx="344.163" cy="130.373" r="8.79"/>
	</g>
</g>
<g>
	<g>
		<circle cx="323.873" cy="150.675" r="8.79"/>
	</g>
</g>
</svg>
